<?xml version="1.0" encoding="utf-8"?>
<!-- Generator: Adobe Illustrator 16.0.0, SVG Export Plug-In . SVG Version: 6.00 Build 0)  -->
<!DOCTYPE svg PUBLIC "-//W3C//DTD SVG 1.1//EN" "http://www.w3.org/Graphics/SVG/1.1/DTD/svg11.dtd">
<svg version="1.1" id="Calque_1" xmlns="http://www.w3.org/2000/svg" xmlns:xlink="http://www.w3.org/1999/xlink" x="0px" y="0px"
	 width="778.392px" height="162.928px" viewBox="0 0 778.392 162.928" enable-background="new 0 0 778.392 162.928"
	 xml:space="preserve">
<g>
	<defs>
		<rect id="SVGID_1_" width="778.392" height="162.928"/>
	</defs>
	<clipPath id="SVGID_2_">
		<use xlink:href="#SVGID_1_"  overflow="visible"/>
	</clipPath>
	<g clip-path="url(#SVGID_2_)">
		<defs>
			<rect id="SVGID_3_" width="778.392" height="162.928"/>
		</defs>
		<clipPath id="SVGID_4_">
			<use xlink:href="#SVGID_3_"  overflow="visible"/>
		</clipPath>
		<path clip-path="url(#SVGID_4_)" fill="#58585A" d="M187.382,59.5c0-4.172-0.074-7.04-0.296-10.314
			c2.195,0.036,4.429,0.184,6.627,0.184c3.65,0,6.776-0.074,7.784-0.184c-0.074,0.445-0.151,0.892-0.151,1.562
			c0,0.782,0.077,1.117,0.151,1.677c-2.833-0.187-7.301-0.448-8.418-0.448c-0.186,2.72-0.186,5.399-0.186,8.118
			c3.241-0.074,5.623-0.148,8.453-0.299c-0.149,0.856-0.184,1.194-0.184,1.677c0,0.409,0.074,0.744,0.184,1.526
			c-2.83-0.222-5.621-0.335-8.453-0.335c0,1.564-0.036,3.164-0.036,4.767c0,1.564,0.036,3.165,0.113,4.655
			c2.791,0,5.659-0.151,8.527-0.486c-0.074,0.521-0.151,0.895-0.151,1.678c0,0.781,0.077,1.155,0.151,1.599
			c-1.343-0.036-3.091-0.183-6.518-0.183c-6.069,0-7.076,0.109-7.893,0.183c0.222-3.277,0.296-6.142,0.296-10.314V59.5z
			 M191.627,47.696c5.586-6.74,5.959-7.001,7.076-7.001c1.191,0,1.751,0.856,1.751,1.677c0,1.004-0.335,1.451-6.779,5.324H191.627z"
			/>
		<path clip-path="url(#SVGID_4_)" fill="#58585A" d="M218.548,61.995c-0.37-2.16-1.487-3.724-3.76-3.724
			c-2.903,0-4.468,2.868-4.468,7.671c0,4.506,1.935,7.001,5.546,7.001c1.53,0,3.167-0.856,3.837-1.751l0.448,0.373
			c-0.335,0.708-0.596,1.451-0.821,2.196c-1.079,0.82-2.756,1.602-5.025,1.602c-7.262,0-9.683-4.915-9.683-9.46
			c0-5.472,3.873-9.531,9.831-9.531c2.756,0,4.616,0.708,6.406,1.751c-0.599,0.969-1.156,2.568-1.416,3.872H218.548z"/>
		<path clip-path="url(#SVGID_4_)" fill="#58585A" d="M231.991,56.371c5.736,0,9.122,3.537,9.122,9.122
			c0,6.072-3.76,9.869-9.122,9.869c-4.43,0-9.123-2.459-9.123-9.048C222.868,59.648,227.3,56.371,231.991,56.371 M232.068,58.048
			c-2.272,0-3.689,2.681-3.689,8.302c0,4.172,0.895,7.336,3.65,7.336c2.309,0,3.573-2.978,3.573-8.75
			C235.602,60.652,234.524,58.048,232.068,58.048"/>
		<path clip-path="url(#SVGID_4_)" fill="#58585A" d="M245.024,59.574c0-4.877-0.109-8.675-0.296-12.885
			c0.631,0.112,1.712,0.186,2.791,0.186c1.081,0,2.159-0.074,2.794-0.186c-0.186,4.21-0.3,8.008-0.3,12.885v2.42
			c0,4.877,0.114,8.676,0.3,12.883c-0.635-0.109-1.713-0.183-2.794-0.183c-1.079,0-2.16,0.074-2.791,0.183
			c0.187-4.207,0.296-8.006,0.296-12.883V59.574z"/>
		<path clip-path="url(#SVGID_4_)" fill="#58585A" d="M259.436,65.867c0,4.02,1.564,7.075,4.989,7.075
			c1.713,0,3.239-0.56,4.581-1.677l0.447,0.335l-0.82,2.086c-1.231,0.93-2.868,1.676-5.659,1.676c-4.842,0-9.049-2.906-9.049-9.421
			c0-6.441,3.647-9.57,8.637-9.57c4.84,0,7.596,3.09,7.596,8.266c0,0.634,0,0.969-0.035,1.23H259.436z M265.168,64.19
			c-0.074-3.722-0.817-6.142-2.756-6.142c-2.195,0-2.903,3.238-2.977,6.142H265.168z"/>
		<path clip-path="url(#SVGID_4_)" fill="#58585A" d="M284.644,59.5c0-4.171-0.075-7.04-0.296-10.314
			c0.817,0.075,1.824,0.184,3.05,0.184c1.716,0,3.651-0.184,5.438-0.184c3.502,0,5.327,0.558,6.479,1.526
			c1.565,1.304,2.308,2.83,2.308,5.025c0,5.698-4.02,7.97-9.569,7.97h-1.9c0,3.725,0.038,7.449,0.3,11.17
			c-0.818-0.074-1.825-0.183-3.056-0.183c-1.226,0-2.233,0.109-3.05,0.183c0.221-3.277,0.296-6.142,0.296-10.314V59.5z
			 M291.792,51.308c-0.596,0-1.152,0-1.562,0.036c-0.039,3.502-0.077,7.001-0.077,10.464c2.498,0,5.588-0.669,5.588-5.472
			C295.742,52.537,293.917,51.308,291.792,51.308"/>
		<path clip-path="url(#SVGID_4_)" fill="#58585A" d="M309.628,61.399l0.074,0.074c1.304-3.425,3.129-4.99,5.623-4.99
			c0.226,0,0.409,0.036,0.596,0.036c-0.147,0.747-0.222,1.529-0.222,2.681c0,0.747,0,1.603,0.035,2.46l-0.335,0.296
			c-0.482-0.296-1.116-0.521-1.898-0.521c-2.234,0-3.612,1.712-3.612,3.688v1.487c0,3.017,0.074,5.663,0.3,8.267
			c-0.635-0.074-1.639-0.184-2.794-0.184c-1.154,0-2.122,0.11-2.792,0.184c0.222-2.604,0.296-5.25,0.296-8.267v-1.487
			c0-3.016-0.074-5.661-0.296-8.269c0.857,0.077,1.712,0.187,2.569,0.187c0.856,0,1.713-0.11,2.568-0.187L309.628,61.399z"/>
		<path clip-path="url(#SVGID_4_)" fill="#58585A" d="M317.893,58.979c2.011-1.677,4.619-2.607,6.966-2.607
			c3.946,0,6.814,1.677,6.814,6.071c0,3.164-0.113,5.771-0.113,8.452c0,2.344,0.67,2.57,2.195,2.57v0.891
			c-1.413,0.746-2.269,1.007-3.425,1.007c-1.825,0-2.941-1.043-3.537-2.72c-1.153,1.565-2.569,2.72-4.842,2.72
			c-3.759,0-5.324-2.494-5.324-4.88c0-3.238,2.16-4.616,5.511-5.436c4.172-1.005,4.542-1.301,4.542-2.643
			c0-1.787-1.339-3.238-3.572-3.238c-1.713,0-3.725,1.004-4.469,2.047h-0.261L317.893,58.979z M326.756,65.198
			c-2.124,1.191-4.915,1.004-4.915,4.764c0,1.825,0.817,2.833,2.121,2.833c1.639,0,2.756-1.269,2.756-3.689
			C326.718,66.946,326.756,66.054,326.756,65.198"/>
		<path clip-path="url(#SVGID_4_)" fill="#58585A" d="M346.119,57.041c-0.074,0.374-0.112,0.672-0.112,1.007
			c0,0.297,0.038,0.631,0.112,0.93l-3.276-0.073c-0.149,2.234-0.261,6.293-0.261,8.302c0,5.175,0.373,6.032,2.085,6.032
			c0.931,0,1.265-0.11,1.713-0.37v1.525c-0.969,0.596-2.643,0.969-4.059,0.969c-3.091,0-4.729-2.012-4.729-5.772
			c0-2.867,0.26-7.522,0.26-10.651l-2.607,0.038c0.075-0.299,0.113-0.633,0.113-0.93c0-0.335-0.038-0.633-0.113-1.007l2.607,0.112
			c0-1.564-0.038-2.681-0.147-4.58c1.712-0.708,3.425-1.49,5.099-2.308l0.373,0.26c-0.187,1.6-0.334,4.356-0.334,6.59
			L346.119,57.041z"/>
		<path clip-path="url(#SVGID_4_)" fill="#58585A" d="M351.926,46.875c1.638,0,2.942,1.304,2.942,2.942
			c0,1.639-1.304,2.942-2.942,2.942c-1.639,0-2.939-1.303-2.939-2.942C348.987,48.179,350.287,46.875,351.926,46.875
			 M349.431,65.124c0-3.016-0.074-5.662-0.296-8.269c0.669,0.077,1.638,0.186,2.791,0.186c1.155,0,2.159-0.109,2.794-0.186
			c-0.223,2.607-0.3,5.253-0.3,8.269v1.487c0,3.016,0.077,5.662,0.3,8.267c-0.635-0.074-1.639-0.184-2.794-0.184
			c-1.153,0-2.122,0.11-2.791,0.184c0.222-2.605,0.296-5.251,0.296-8.267V65.124z"/>
		<path clip-path="url(#SVGID_4_)" fill="#58585A" d="M375.646,72.16c0,4.876,0.114,8.675,0.3,12.512
			c-0.635-0.112-1.713-0.187-2.794-0.187c-1.079,0-2.16,0.074-2.791,0.187c0.187-3.837,0.296-7.636,0.296-12.064h-0.074
			c-0.856,1.564-2.794,2.755-5.027,2.755c-4.057,0-7.224-3.985-7.224-9.309c0-5.289,2.086-9.683,7.149-9.683
			c2.943,0,4.468,1.452,5.402,3.612l0.074-0.075c0-0.334-0.188-2.716-0.3-3.054c0.486,0.113,1.49,0.187,2.495,0.187
			c1.081,0,2.159-0.074,2.794-0.187c-0.186,4.21-0.3,8.009-0.3,12.886V72.16z M367.12,58.679c-1.748,0-3.277,1.751-3.277,6.814
			c0,5.699,1.825,7.301,3.464,7.301c2.046,0,3.424-2.011,3.424-6.631C370.73,60.804,369.244,58.679,367.12,58.679"/>
		<path clip-path="url(#SVGID_4_)" fill="#58585A" d="M391.326,72.086h-0.074c-1.381,2.009-3.278,3.276-5.623,3.276
			c-3.725,0-5.811-2.085-5.811-6.852c0-2.53,0.149-4.32,0.149-6.255c0-1.565-0.111-3.502-0.184-5.401
			c0.631,0.112,1.712,0.187,2.791,0.187c1.081,0,2.16-0.075,2.794-0.187c-0.335,2.681-0.409,6.257-0.409,10.687
			c0,3.093,1.117,4.545,3.052,4.545c2.234,0,3.241-2.048,3.241-5.476v-1.487c0-3.016-0.077-5.662-0.299-8.269
			c0.634,0.077,1.638,0.187,2.794,0.187c1.151,0,2.121-0.11,2.791-0.187c-0.224,2.607-0.297,5.253-0.297,8.269v1.487
			c0,3.017,0.073,5.663,0.297,8.267c-0.894-0.074-1.752-0.184-2.645-0.184c-0.894,0-1.751,0.11-2.719,0.184L391.326,72.086z"/>
		<path clip-path="url(#SVGID_4_)" fill="#58585A" d="M405.251,65.867c0,4.02,1.563,7.075,4.99,7.075c1.715,0,3.24-0.56,4.58-1.677
			l0.446,0.335l-0.816,2.086c-1.23,0.93-2.868,1.676-5.662,1.676c-4.841,0-9.049-2.906-9.049-9.421c0-6.441,3.649-9.57,8.64-9.57
			c4.841,0,7.596,3.09,7.596,8.266c0,0.634,0,0.969-0.038,1.23H405.251z M410.987,64.19c-0.074-3.722-0.82-6.142-2.756-6.142
			c-2.198,0-2.906,3.238-2.98,6.142H410.987z"/>
		<path clip-path="url(#SVGID_4_)" fill="#58585A" d="M204.292,107.971c0,4.877,0.11,8.676,0.296,12.883
			c-0.634-0.109-1.712-0.184-2.791-0.184c-1.007,0-2.012,0.074-2.494,0.184c0.109-0.334,0.296-2.718,0.296-3.052l-0.074-0.074
			c-0.93,2.159-2.459,3.612-5.325,3.612c-5.027,0-7.113-4.394-7.113-9.683c0-5.324,3.167-9.311,7.188-9.311
			c2.16,0,4.094,1.192,4.951,2.757h0.077c0-4.43-0.113-8.228-0.3-12.438c0.634,0.112,1.713,0.187,2.794,0.187
			c1.079,0,2.157-0.074,2.791-0.187c-0.186,4.21-0.296,8.008-0.296,12.885V107.971z M195.8,119.032c2.012,0,3.502-2.124,3.502-7.486
			c0-4.617-1.381-6.628-3.315-6.628c-1.565,0-3.39,1.603-3.39,7.3C192.597,117.282,194.125,119.032,195.8,119.032"/>
		<path clip-path="url(#SVGID_4_)" fill="#58585A" d="M213.302,111.844c0,4.021,1.564,7.075,4.989,7.075
			c1.716,0,3.241-0.56,4.581-1.677l0.447,0.335l-0.817,2.086c-1.231,0.93-2.869,1.677-5.662,1.677c-4.842,0-9.049-2.906-9.049-9.422
			c0-6.441,3.65-9.57,8.64-9.57c4.84,0,7.596,3.09,7.596,8.267c0,0.634,0,0.969-0.039,1.229H213.302z M219.038,110.167
			c-0.074-3.722-0.821-6.143-2.756-6.143c-2.198,0-2.906,3.239-2.98,6.143H219.038z"/>
		<path clip-path="url(#SVGID_4_)" fill="#58585A" d="M227.75,116.165c0.596,1.562,1.787,3.052,4.395,3.052
			c1.711,0,2.716-1.079,2.716-2.122c0-3.389-8.562-2.272-8.562-8.749c0-4.21,3.425-5.997,6.515-5.997
			c2.047,0,3.573,0.596,5.249,1.752c-0.446,0.969-0.743,2.195-0.894,3.276h-1.042c-0.262-1.191-1.34-3.129-3.687-3.129
			c-1.487,0-2.642,0.856-2.642,2.16c0,3.61,8.788,2.047,8.788,8.64c0,4.281-3.499,6.293-7.189,6.293
			c-2.195,0-4.094-0.895-5.137-1.603c0.3-1.191,0.483-2.383,0.557-3.573H227.75z"/>
		<path clip-path="url(#SVGID_4_)" fill="#58585A" d="M270.164,108.419c-1.899-0.038-3.763-0.151-5.662-0.151
			c-1.86,0-3.759,0.077-5.658,0.151v2.121c0,4.172,0.073,7.037,0.299,10.313c-0.821-0.073-1.826-0.184-3.055-0.184
			c-1.23,0-2.235,0.11-3.055,0.184c0.226-3.276,0.3-6.142,0.3-10.313v-5.063c0-4.171-0.074-7.04-0.3-10.313
			c0.82,0.074,1.825,0.184,3.055,0.184c1.229,0,2.234-0.109,3.055-0.184c-0.226,3.237-0.299,6.106-0.299,10.238
			c1.264,0.037,3.054,0.075,5.697,0.075s4.207-0.038,5.623-0.075c0-4.132-0.074-7.001-0.299-10.238
			c0.82,0.074,1.825,0.184,3.055,0.184c1.226,0,2.234-0.109,3.052-0.184c-0.223,3.273-0.297,6.143-0.297,10.313v5.063
			c0,4.172,0.074,7.037,0.297,10.313c-0.818-0.073-1.826-0.184-3.052-0.184c-1.23,0-2.235,0.11-3.055,0.184
			c0.225-3.276,0.299-6.142,0.299-10.313V108.419z"/>
		<path clip-path="url(#SVGID_4_)" fill="#58585A" d="M281.147,104.956c2.011-1.677,4.619-2.607,6.966-2.607
			c3.946,0,6.814,1.677,6.814,6.071c0,3.164-0.112,5.771-0.112,8.453c0,2.344,0.669,2.568,2.195,2.568v0.892
			c-1.414,0.747-2.269,1.008-3.426,1.008c-1.824,0-2.941-1.043-3.537-2.72c-1.152,1.564-2.568,2.72-4.842,2.72
			c-3.758,0-5.324-2.495-5.324-4.88c0-3.238,2.16-4.616,5.512-5.437c4.172-1.005,4.542-1.301,4.542-2.643
			c0-1.787-1.34-3.239-3.573-3.239c-1.713,0-3.725,1.005-4.468,2.048h-0.261L281.147,104.956z M290.012,111.175
			c-2.125,1.189-4.916,1.004-4.916,4.764c0,1.825,0.818,2.833,2.122,2.833c1.639,0,2.755-1.269,2.755-3.689
			C289.973,112.923,290.012,112.03,290.012,111.175"/>
		<path clip-path="url(#SVGID_4_)" fill="#58585A" d="M311.122,118.063h-0.073c-1.381,2.009-3.278,3.277-5.624,3.277
			c-3.724,0-5.81-2.086-5.81-6.853c0-2.531,0.148-4.321,0.148-6.255c0-1.565-0.11-3.502-0.184-5.401
			c0.631,0.112,1.713,0.187,2.791,0.187c1.082,0,2.16-0.074,2.794-0.187c-0.335,2.682-0.408,6.258-0.408,10.687
			c0,3.094,1.116,4.545,3.051,4.545c2.234,0,3.242-2.047,3.242-5.475v-1.487c0-3.018-0.077-5.662-0.3-8.27
			c0.635,0.077,1.639,0.187,2.794,0.187c1.152,0,2.121-0.109,2.791-0.187c-0.222,2.607-0.296,5.252-0.296,8.27v1.487
			c0,3.016,0.074,5.661,0.296,8.266c-0.892-0.073-1.751-0.184-2.643-0.184c-0.894,0-1.751,0.11-2.719,0.184L311.122,118.063z"/>
		<path clip-path="url(#SVGID_4_)" fill="#58585A" d="M330.076,103.018c-0.074,0.373-0.113,0.673-0.113,1.007
			c0,0.297,0.039,0.632,0.113,0.93l-3.277-0.072c-0.149,2.233-0.261,6.293-0.261,8.302c0,5.176,0.373,6.032,2.086,6.032
			c0.93,0,1.265-0.11,1.712-0.371v1.526c-0.969,0.596-2.643,0.969-4.059,0.969c-3.09,0-4.728-2.012-4.728-5.771
			c0-2.868,0.26-7.522,0.26-10.651l-2.607,0.037c0.074-0.298,0.112-0.633,0.112-0.93c0-0.334-0.038-0.634-0.112-1.007l2.607,0.112
			c0-1.564-0.039-2.681-0.148-4.58c1.713-0.708,3.425-1.49,5.099-2.309l0.374,0.261c-0.187,1.601-0.335,4.355-0.335,6.59
			L330.076,103.018z"/>
		<path clip-path="url(#SVGID_4_)" fill="#58585A" d="M337.447,111.844c0,4.021,1.564,7.075,4.989,7.075
			c1.716,0,3.241-0.56,4.581-1.677l0.447,0.335l-0.818,2.086c-1.23,0.93-2.868,1.677-5.662,1.677c-4.841,0-9.048-2.906-9.048-9.422
			c0-6.441,3.65-9.57,8.64-9.57c4.84,0,7.596,3.09,7.596,8.267c0,0.634,0,0.969-0.039,1.229H337.447z M343.183,110.167
			c-0.074-3.722-0.821-6.143-2.756-6.143c-2.198,0-2.906,3.239-2.98,6.143H343.183z"/>
		<path clip-path="url(#SVGID_4_)" fill="#58585A" d="M351.896,116.165c0.596,1.562,1.787,3.052,4.395,3.052
			c1.711,0,2.716-1.079,2.716-2.122c0-3.389-8.562-2.272-8.562-8.749c0-4.21,3.425-5.997,6.514-5.997
			c2.048,0,3.574,0.596,5.251,1.752c-0.448,0.969-0.744,2.195-0.895,3.276h-1.043c-0.261-1.191-1.339-3.129-3.686-3.129
			c-1.487,0-2.642,0.856-2.642,2.16c0,3.61,8.788,2.047,8.788,8.64c0,4.281-3.5,6.293-7.189,6.293c-2.195,0-4.094-0.895-5.137-1.603
			c0.3-1.191,0.483-2.383,0.557-3.573H351.896z"/>
		<path clip-path="url(#SVGID_4_)" fill="#58585A" d="M377.143,105.477c0-4.171-0.074-7.04-0.3-10.313
			c2.198,0.036,4.433,0.184,6.628,0.184c3.65,0,6.779-0.074,7.783-0.184c-0.073,0.444-0.146,0.892-0.146,1.562
			c0,0.782,0.073,1.117,0.146,1.677c-2.829-0.187-7.297-0.447-8.414-0.447c-0.186,2.72-0.186,5.398-0.186,8.117
			c3.238-0.073,5.623-0.147,8.453-0.298c-0.149,0.855-0.188,1.193-0.188,1.677c0,0.408,0.074,0.743,0.188,1.525
			c-2.83-0.222-5.624-0.335-8.453-0.335c0,1.564-0.039,3.165-0.039,4.768c0,1.564,0.039,3.163,0.113,4.654
			c2.794,0,5.658-0.15,8.525-0.485c-0.073,0.521-0.146,0.895-0.146,1.677s0.073,1.155,0.146,1.6
			c-1.339-0.035-3.09-0.184-6.514-0.184c-6.072,0-7.077,0.109-7.897,0.184c0.226-3.276,0.3-6.142,0.3-10.313V105.477z
			 M381.388,93.673c5.585-6.74,5.958-7.001,7.075-7.001c1.192,0,1.748,0.855,1.748,1.677c0,1.005-0.335,1.452-6.774,5.324H381.388z"
			/>
		<path clip-path="url(#SVGID_4_)" fill="#58585A" d="M404.55,103.018c-0.074,0.373-0.113,0.673-0.113,1.007
			c0,0.297,0.039,0.632,0.113,0.93l-3.277-0.072c-0.149,2.233-0.261,6.293-0.261,8.302c0,5.176,0.373,6.032,2.086,6.032
			c0.931,0,1.265-0.11,1.712-0.371v1.526c-0.969,0.596-2.644,0.969-4.06,0.969c-3.09,0-4.728-2.012-4.728-5.771
			c0-2.868,0.26-7.522,0.26-10.651l-2.606,0.037c0.073-0.298,0.111-0.633,0.111-0.93c0-0.334-0.038-0.634-0.111-1.007l2.606,0.112
			c0-1.564-0.039-2.681-0.147-4.58c1.713-0.708,3.425-1.49,5.1-2.309l0.373,0.261c-0.188,1.601-0.335,4.355-0.335,6.59
			L404.55,103.018z"/>
		<path clip-path="url(#SVGID_4_)" fill="#58585A" d="M418.699,118.063h-0.073c-1.381,2.009-3.278,3.277-5.624,3.277
			c-3.725,0-5.811-2.086-5.811-6.853c0-2.531,0.148-4.321,0.148-6.255c0-1.565-0.11-3.502-0.184-5.401
			c0.632,0.112,1.713,0.187,2.791,0.187c1.081,0,2.159-0.074,2.794-0.187c-0.335,2.682-0.408,6.258-0.408,10.687
			c0,3.094,1.117,4.545,3.052,4.545c2.233,0,3.241-2.047,3.241-5.475v-1.487c0-3.018-0.077-5.662-0.3-8.27
			c0.635,0.077,1.639,0.187,2.794,0.187c1.152,0,2.122-0.109,2.791-0.187c-0.223,2.607-0.296,5.252-0.296,8.27v1.487
			c0,3.016,0.073,5.661,0.296,8.266c-0.893-0.073-1.751-0.184-2.644-0.184c-0.894,0-1.751,0.11-2.719,0.184L418.699,118.063z"/>
		<path clip-path="url(#SVGID_4_)" fill="#58585A" d="M444.315,107.971c0,4.877,0.11,8.676,0.296,12.883
			c-0.634-0.109-1.712-0.184-2.791-0.184c-1.007,0-2.012,0.074-2.493,0.184c0.108-0.334,0.296-2.718,0.296-3.052l-0.074-0.074
			c-0.93,2.159-2.459,3.612-5.325,3.612c-5.026,0-7.113-4.394-7.113-9.683c0-5.324,3.167-9.311,7.188-9.311
			c2.16,0,4.094,1.192,4.951,2.757h0.077c0-4.43-0.113-8.228-0.301-12.438c0.636,0.112,1.714,0.187,2.794,0.187
			c1.079,0,2.157-0.074,2.791-0.187c-0.186,4.21-0.296,8.008-0.296,12.885V107.971z M435.825,119.032
			c2.012,0,3.502-2.124,3.502-7.486c0-4.617-1.382-6.628-3.315-6.628c-1.564,0-3.39,1.603-3.39,7.3
			C432.622,117.282,434.15,119.032,435.825,119.032"/>
		<path clip-path="url(#SVGID_4_)" fill="#58585A" d="M453.326,111.844c0,4.021,1.563,7.075,4.989,7.075
			c1.716,0,3.24-0.56,4.581-1.677l0.446,0.335l-0.817,2.086c-1.229,0.93-2.867,1.677-5.661,1.677c-4.842,0-9.049-2.906-9.049-9.422
			c0-6.441,3.649-9.57,8.64-9.57c4.841,0,7.596,3.09,7.596,8.267c0,0.634,0,0.969-0.038,1.229H453.326z M459.062,110.167
			c-0.074-3.722-0.821-6.143-2.757-6.143c-2.197,0-2.905,3.239-2.979,6.143H459.062z"/>
		<path clip-path="url(#SVGID_4_)" fill="#58585A" d="M467.776,116.165c0.596,1.562,1.785,3.052,4.394,3.052
			c1.712,0,2.716-1.079,2.716-2.122c0-3.389-8.562-2.272-8.562-8.749c0-4.21,3.425-5.997,6.515-5.997
			c2.047,0,3.574,0.596,5.25,1.752c-0.447,0.969-0.744,2.195-0.894,3.276h-1.043c-0.262-1.191-1.341-3.129-3.688-3.129
			c-1.487,0-2.642,0.856-2.642,2.16c0,3.61,8.788,2.047,8.788,8.64c0,4.281-3.499,6.293-7.188,6.293
			c-2.196,0-4.094-0.895-5.137-1.603c0.299-1.191,0.481-2.383,0.556-3.573H467.776z"/>
		<g opacity="0.75" clip-path="url(#SVGID_4_)">
			<g>
				<defs>
					<rect id="SVGID_5_" x="62.217" y="0.892" width="34.411" height="34.412"/>
				</defs>
				<clipPath id="SVGID_6_">
					<use xlink:href="#SVGID_5_"  overflow="visible"/>
				</clipPath>
				
					<rect x="67.9" y="6.578" transform="matrix(0.707 -0.7072 0.7072 0.707 10.4686 61.4664)" clip-path="url(#SVGID_6_)" width="23.042" height="23.04"/>
				
					<rect x="67.9" y="6.578" transform="matrix(0.707 -0.7072 0.7072 0.707 10.4686 61.4664)" clip-path="url(#SVGID_6_)" fill="none" stroke="#000000" stroke-width="1.29" width="23.042" height="23.04"/>
			</g>
		</g>
		
			<rect x="67.008" y="5.685" transform="matrix(0.707 -0.7072 0.7072 0.707 10.8383 60.5737)" clip-path="url(#SVGID_4_)" fill="#C2072F" width="23.042" height="23.04"/>
		
			<rect x="67.008" y="5.685" transform="matrix(0.707 -0.7072 0.7072 0.707 10.8383 60.5737)" clip-path="url(#SVGID_4_)" fill="none" stroke="#FFFFFF" stroke-width="1.29" width="23.042" height="23.04"/>
		<g opacity="0.75" clip-path="url(#SVGID_4_)">
			<g>
				<defs>
					<rect id="SVGID_7_" x="81.254" y="19.952" width="40.514" height="40.515"/>
				</defs>
				<clipPath id="SVGID_8_">
					<use xlink:href="#SVGID_7_"  overflow="visible"/>
				</clipPath>
				
					<rect x="87.945" y="26.646" transform="matrix(0.707 -0.7072 0.7072 0.707 1.3025 83.5641)" clip-path="url(#SVGID_8_)" width="27.129" height="27.127"/>
				
					<rect x="87.945" y="26.646" transform="matrix(0.707 -0.7072 0.7072 0.707 1.3025 83.5641)" clip-path="url(#SVGID_8_)" fill="none" stroke="#000000" stroke-width="1.519" width="27.129" height="27.127"/>
			</g>
		</g>
		
			<rect x="86.893" y="25.594" transform="matrix(0.7071 -0.7071 0.7071 0.7071 1.7366 82.5092)" clip-path="url(#SVGID_4_)" fill="#C2072F" width="27.13" height="27.128"/>
		
			<rect x="86.893" y="25.594" transform="matrix(0.7071 -0.7071 0.7071 0.7071 1.7366 82.5092)" clip-path="url(#SVGID_4_)" fill="none" stroke="#FFFFFF" stroke-width="1.519" width="27.13" height="27.128"/>
		<g opacity="0.75" clip-path="url(#SVGID_4_)">
			<g>
				<defs>
					<rect id="SVGID_9_" x="107.84" y="42.543" width="31.84" height="31.839"/>
				</defs>
				<clipPath id="SVGID_10_">
					<use xlink:href="#SVGID_9_"  overflow="visible"/>
				</clipPath>
				
					<rect x="113.099" y="47.804" transform="matrix(0.707 -0.7072 0.7072 0.707 -5.0873 104.6448)" clip-path="url(#SVGID_10_)" width="21.321" height="21.318"/>
				
					<rect x="113.099" y="47.804" transform="matrix(0.707 -0.7072 0.7072 0.707 -5.0873 104.6448)" clip-path="url(#SVGID_10_)" fill="none" stroke="#000000" stroke-width="1.193" width="21.321" height="21.318"/>
			</g>
		</g>
		
			<rect x="112.273" y="46.977" transform="matrix(0.7071 -0.7072 0.7072 0.7071 -4.7462 103.8166)" clip-path="url(#SVGID_4_)" fill="#C2072F" width="21.32" height="21.319"/>
		
			<rect x="112.273" y="46.977" transform="matrix(0.7071 -0.7072 0.7072 0.7071 -4.7462 103.8166)" clip-path="url(#SVGID_4_)" fill="none" stroke="#FFFFFF" stroke-width="1.193" width="21.32" height="21.319"/>
		<g opacity="0.75" clip-path="url(#SVGID_4_)">
			<g>
				<defs>
					<rect id="SVGID_11_" x="118.432" y="62.875" width="43.224" height="43.225"/>
				</defs>
				<clipPath id="SVGID_12_">
					<use xlink:href="#SVGID_11_"  overflow="visible"/>
				</clipPath>
				
					<rect x="125.571" y="70.017" transform="matrix(0.7071 -0.7071 0.7071 0.7071 -18.722 123.7811)" clip-path="url(#SVGID_12_)" width="28.945" height="28.942"/>
				
					<rect x="125.571" y="70.017" transform="matrix(0.7071 -0.7071 0.7071 0.7071 -18.722 123.7811)" clip-path="url(#SVGID_12_)" fill="none" stroke="#000000" stroke-width="1.62" width="28.945" height="28.942"/>
			</g>
		</g>
		
			<rect x="124.45" y="68.895" transform="matrix(0.7071 -0.7072 0.7072 0.7071 -18.2569 122.6609)" clip-path="url(#SVGID_4_)" fill="#C2072F" width="28.944" height="28.942"/>
		
			<rect x="124.45" y="68.895" transform="matrix(0.7071 -0.7072 0.7072 0.7071 -18.2569 122.6609)" clip-path="url(#SVGID_4_)" fill="none" stroke="#FFFFFF" stroke-width="1.62" width="28.944" height="28.942"/>
		<g opacity="0.75" clip-path="url(#SVGID_4_)">
			<g>
				<defs>
					<rect id="SVGID_13_" x="42.759" y="24.297" width="34.411" height="34.411"/>
				</defs>
				<clipPath id="SVGID_14_">
					<use xlink:href="#SVGID_13_"  overflow="visible"/>
				</clipPath>
				
					<rect x="48.443" y="29.983" transform="matrix(0.707 -0.7072 0.7072 0.707 -11.7828 54.5632)" clip-path="url(#SVGID_14_)" width="23.042" height="23.04"/>
				
					<rect x="48.443" y="29.983" transform="matrix(0.707 -0.7072 0.7072 0.707 -11.7828 54.5632)" clip-path="url(#SVGID_14_)" fill="none" stroke="#000000" stroke-width="1.29" width="23.042" height="23.04"/>
			</g>
		</g>
		
			<rect x="47.55" y="29.09" transform="matrix(0.707 -0.7072 0.7072 0.707 -11.4129 53.6701)" clip-path="url(#SVGID_4_)" fill="#C2072F" width="23.042" height="23.04"/>
		
			<rect x="47.55" y="29.09" transform="matrix(0.707 -0.7072 0.7072 0.707 -11.4129 53.6701)" clip-path="url(#SVGID_4_)" fill="none" stroke="#FFFFFF" stroke-width="1.29" width="23.042" height="23.04"/>
		<g opacity="0.75" clip-path="url(#SVGID_4_)">
			<g>
				<defs>
					<rect id="SVGID_15_" x="61.602" y="44.583" width="34.411" height="34.412"/>
				</defs>
				<clipPath id="SVGID_16_">
					<use xlink:href="#SVGID_15_"  overflow="visible"/>
				</clipPath>
				
					<rect x="67.285" y="50.269" transform="matrix(0.707 -0.7072 0.7072 0.707 -20.6086 73.8309)" clip-path="url(#SVGID_16_)" width="23.042" height="23.04"/>
				
					<rect x="67.285" y="50.269" transform="matrix(0.707 -0.7072 0.7072 0.707 -20.6086 73.8309)" clip-path="url(#SVGID_16_)" fill="none" stroke="#000000" stroke-width="1.29" width="23.042" height="23.04"/>
			</g>
		</g>
		
			<rect x="66.392" y="49.376" transform="matrix(0.707 -0.7072 0.7072 0.707 -20.2389 72.9382)" clip-path="url(#SVGID_4_)" fill="#C2072F" width="23.042" height="23.04"/>
		
			<rect x="66.392" y="49.376" transform="matrix(0.707 -0.7072 0.7072 0.707 -20.2389 72.9382)" clip-path="url(#SVGID_4_)" fill="none" stroke="#FFFFFF" stroke-width="1.29" width="23.042" height="23.04"/>
		<g opacity="0.75" clip-path="url(#SVGID_4_)">
			<g>
				<defs>
					<rect id="SVGID_17_" x="83.863" y="64.899" width="38.473" height="35.853"/>
				</defs>
				<clipPath id="SVGID_18_">
					<use xlink:href="#SVGID_17_"  overflow="visible"/>
				</clipPath>
				<polygon clip-path="url(#SVGID_18_)" points="101.098,65.783 84.806,82.078 105.098,99.87 121.393,83.578 				"/>
				<polygon clip-path="url(#SVGID_18_)" fill="none" stroke="#000000" stroke-width="1.29" points="101.098,65.783 84.806,82.078 
					105.098,99.87 121.393,83.578 				"/>
			</g>
		</g>
		<polygon clip-path="url(#SVGID_4_)" fill="#C2072F" points="100.206,64.89 83.914,81.185 104.206,98.977 120.5,82.685 		"/>
		<polygon clip-path="url(#SVGID_4_)" fill="none" stroke="#FFFFFF" stroke-width="1.29" points="100.206,64.89 83.914,81.185 
			104.206,98.977 120.5,82.685 		"/>
		<g opacity="0.75" clip-path="url(#SVGID_4_)">
			<g>
				<defs>
					<rect id="SVGID_19_" x="114.844" y="96.854" width="22.331" height="22.331"/>
				</defs>
				<clipPath id="SVGID_20_">
					<use xlink:href="#SVGID_19_"  overflow="visible"/>
				</clipPath>
				
					<rect x="118.532" y="100.543" transform="matrix(0.7071 -0.7072 0.7072 0.7071 -39.4731 120.7508)" clip-path="url(#SVGID_20_)" width="14.953" height="14.952"/>
				
					<rect x="118.532" y="100.543" transform="matrix(0.7071 -0.7072 0.7072 0.7071 -39.4731 120.7508)" clip-path="url(#SVGID_20_)" fill="none" stroke="#000000" stroke-width="0.837" width="14.953" height="14.952"/>
			</g>
		</g>
		
			<rect x="117.952" y="99.963" transform="matrix(0.707 -0.7072 0.7072 0.707 -39.232 120.179)" clip-path="url(#SVGID_4_)" fill="#C2072F" width="14.954" height="14.951"/>
		
			<rect x="117.952" y="99.963" transform="matrix(0.707 -0.7072 0.7072 0.707 -39.232 120.179)" clip-path="url(#SVGID_4_)" fill="none" stroke="#FFFFFF" stroke-width="0.837" width="14.954" height="14.951"/>
		<g opacity="0.75" clip-path="url(#SVGID_4_)">
			<g>
				<defs>
					<rect id="SVGID_21_" x="27.073" y="44.259" width="23.459" height="23.459"/>
				</defs>
				<clipPath id="SVGID_22_">
					<use xlink:href="#SVGID_21_"  overflow="visible"/>
				</clipPath>
				
					<rect x="30.947" y="48.135" transform="matrix(0.707 -0.7072 0.7072 0.707 -28.226 43.8415)" clip-path="url(#SVGID_22_)" width="15.709" height="15.707"/>
				
					<rect x="30.947" y="48.135" transform="matrix(0.707 -0.7072 0.7072 0.707 -28.226 43.8415)" clip-path="url(#SVGID_22_)" fill="none" stroke="#000000" stroke-width="0.879" width="15.709" height="15.707"/>
			</g>
		</g>
		
			<rect x="30.339" y="47.526" transform="matrix(0.7071 -0.7071 0.7071 0.7071 -27.9736 43.2297)" clip-path="url(#SVGID_4_)" fill="#C2072F" width="15.708" height="15.708"/>
		
			<rect x="30.339" y="47.526" transform="matrix(0.7071 -0.7071 0.7071 0.7071 -27.9736 43.2297)" clip-path="url(#SVGID_4_)" fill="none" stroke="#FFFFFF" stroke-width="0.879" width="15.708" height="15.708"/>
		<g opacity="0.75" clip-path="url(#SVGID_4_)">
			<g>
				<defs>
					<rect id="SVGID_23_" x="43.023" y="64.54" width="34.411" height="34.411"/>
				</defs>
				<clipPath id="SVGID_24_">
					<use xlink:href="#SVGID_23_"  overflow="visible"/>
				</clipPath>
				
					<rect x="48.706" y="70.225" transform="matrix(0.707 -0.7072 0.7072 0.707 -40.1637 66.5389)" clip-path="url(#SVGID_24_)" width="23.042" height="23.04"/>
				
					<rect x="48.706" y="70.225" transform="matrix(0.707 -0.7072 0.7072 0.707 -40.1637 66.5389)" clip-path="url(#SVGID_24_)" fill="none" stroke="#000000" stroke-width="1.29" width="23.042" height="23.04"/>
			</g>
		</g>
		
			<rect x="47.813" y="69.332" transform="matrix(0.7071 -0.7071 0.7071 0.7071 -39.7933 65.6432)" clip-path="url(#SVGID_4_)" fill="#C2072F" width="23.043" height="23.041"/>
		
			<rect x="47.813" y="69.332" transform="matrix(0.7071 -0.7071 0.7071 0.7071 -39.7933 65.6432)" clip-path="url(#SVGID_4_)" fill="none" stroke="#FFFFFF" stroke-width="1.29" width="23.043" height="23.041"/>
		<g opacity="0.75" clip-path="url(#SVGID_4_)">
			<g>
				<defs>
					<rect id="SVGID_25_" x="64.166" y="85.976" width="34.411" height="34.411"/>
				</defs>
				<clipPath id="SVGID_26_">
					<use xlink:href="#SVGID_25_"  overflow="visible"/>
				</clipPath>
				
					<rect x="69.849" y="91.661" transform="matrix(0.7071 -0.7071 0.7071 0.7071 -49.1284 87.7667)" clip-path="url(#SVGID_26_)" width="23.043" height="23.041"/>
				
					<rect x="69.849" y="91.661" transform="matrix(0.7071 -0.7071 0.7071 0.7071 -49.1284 87.7667)" clip-path="url(#SVGID_26_)" fill="none" stroke="#000000" stroke-width="1.29" width="23.043" height="23.041"/>
			</g>
		</g>
		
			<rect x="68.956" y="90.769" transform="matrix(0.707 -0.7072 0.7072 0.707 -48.7595 86.8773)" clip-path="url(#SVGID_4_)" fill="#C2072F" width="23.042" height="23.04"/>
		
			<rect x="68.956" y="90.769" transform="matrix(0.707 -0.7072 0.7072 0.707 -48.7595 86.8773)" clip-path="url(#SVGID_4_)" fill="none" stroke="#FFFFFF" stroke-width="1.29" width="23.042" height="23.04"/>
		<g opacity="0.75" clip-path="url(#SVGID_4_)">
			<g>
				<defs>
					<rect id="SVGID_27_" x="81.735" y="99.655" width="41.384" height="41.385"/>
				</defs>
				<clipPath id="SVGID_28_">
					<use xlink:href="#SVGID_27_"  overflow="visible"/>
				</clipPath>
				
					<rect x="88.569" y="106.492" transform="matrix(0.707 -0.7072 0.7072 0.707 -55.0999 107.6902)" clip-path="url(#SVGID_28_)" width="27.713" height="27.71"/>
				
					<rect x="88.569" y="106.492" transform="matrix(0.707 -0.7072 0.7072 0.707 -55.0999 107.6902)" clip-path="url(#SVGID_28_)" fill="none" stroke="#000000" stroke-width="1.551" width="27.713" height="27.71"/>
			</g>
		</g>
		
			<rect x="87.496" y="105.418" transform="matrix(0.7071 -0.7071 0.7071 0.7071 -54.654 106.6087)" clip-path="url(#SVGID_4_)" fill="#C2072F" width="27.713" height="27.71"/>
		
			<rect x="87.496" y="105.418" transform="matrix(0.7071 -0.7071 0.7071 0.7071 -54.654 106.6087)" clip-path="url(#SVGID_4_)" fill="none" stroke="#FFFFFF" stroke-width="1.551" width="27.713" height="27.71"/>
		<g opacity="0.75" clip-path="url(#SVGID_4_)">
			<g>
				<defs>
					<rect id="SVGID_29_" x="1.194" y="57.556" width="46.02" height="46.02"/>
				</defs>
				<clipPath id="SVGID_30_">
					<use xlink:href="#SVGID_29_"  overflow="visible"/>
				</clipPath>
				
					<rect x="8.794" y="65.159" transform="matrix(0.7071 -0.7072 0.7072 0.7071 -49.8826 40.716)" clip-path="url(#SVGID_30_)" width="30.816" height="30.814"/>
				
					<rect x="8.794" y="65.159" transform="matrix(0.7071 -0.7072 0.7072 0.7071 -49.8826 40.716)" clip-path="url(#SVGID_30_)" fill="none" stroke="#000000" stroke-width="1.725" width="30.816" height="30.814"/>
			</g>
		</g>
		
			<rect x="7.601" y="63.965" transform="matrix(0.7071 -0.7072 0.7072 0.7071 -49.3883 39.5221)" clip-path="url(#SVGID_4_)" fill="#C2072F" width="30.816" height="30.814"/>
		
			<rect x="7.601" y="63.965" transform="matrix(0.7071 -0.7072 0.7072 0.7071 -49.3883 39.5221)" clip-path="url(#SVGID_4_)" fill="none" stroke="#FFFFFF" stroke-width="1.725" width="30.816" height="30.814"/>
		<g opacity="0.75" clip-path="url(#SVGID_4_)">
			<g>
				<defs>
					<rect id="SVGID_31_" x="25.659" y="91.394" width="32.266" height="32.266"/>
				</defs>
				<clipPath id="SVGID_32_">
					<use xlink:href="#SVGID_31_"  overflow="visible"/>
				</clipPath>
				
					<rect x="30.987" y="96.725" transform="matrix(0.7071 -0.7072 0.7072 0.7071 -63.7969 61.0528)" clip-path="url(#SVGID_32_)" width="21.606" height="21.604"/>
				
					<rect x="30.987" y="96.725" transform="matrix(0.7071 -0.7072 0.7072 0.7071 -63.7969 61.0528)" clip-path="url(#SVGID_32_)" fill="none" stroke="#000000" stroke-width="1.209" width="21.606" height="21.604"/>
			</g>
		</g>
		
			<rect x="30.151" y="95.888" transform="matrix(0.7071 -0.7071 0.7071 0.7071 -63.4484 60.2123)" clip-path="url(#SVGID_4_)" fill="#C2072F" width="21.606" height="21.604"/>
		
			<rect x="30.151" y="95.888" transform="matrix(0.7071 -0.7071 0.7071 0.7071 -63.4484 60.2123)" clip-path="url(#SVGID_4_)" fill="none" stroke="#FFFFFF" stroke-width="1.209" width="21.606" height="21.604"/>
		<g opacity="0.75" clip-path="url(#SVGID_4_)">
			<g>
				<defs>
					<rect id="SVGID_33_" x="44.111" y="111.78" width="30.665" height="30.666"/>
				</defs>
				<clipPath id="SVGID_34_">
					<use xlink:href="#SVGID_33_"  overflow="visible"/>
				</clipPath>
				
					<rect x="49.175" y="116.847" transform="matrix(0.7071 -0.7071 0.7071 0.7071 -72.4748 79.2694)" clip-path="url(#SVGID_34_)" width="20.534" height="20.533"/>
				
					<rect x="49.175" y="116.847" transform="matrix(0.7071 -0.7071 0.7071 0.7071 -72.4748 79.2694)" clip-path="url(#SVGID_34_)" fill="none" stroke="#000000" stroke-width="1.149" width="20.534" height="20.533"/>
			</g>
		</g>
		
			<rect x="48.379" y="116.051" transform="matrix(0.7071 -0.7071 0.7071 0.7071 -72.1451 78.4734)" clip-path="url(#SVGID_4_)" fill="#C2072F" width="20.534" height="20.533"/>
		
			<rect x="48.379" y="116.051" transform="matrix(0.7071 -0.7071 0.7071 0.7071 -72.1451 78.4734)" clip-path="url(#SVGID_4_)" fill="none" stroke="#FFFFFF" stroke-width="1.149" width="20.534" height="20.533"/>
		<g opacity="0.75" clip-path="url(#SVGID_4_)">
			<g>
				<defs>
					<rect id="SVGID_35_" x="63.209" y="128.517" width="34.411" height="34.411"/>
				</defs>
				<clipPath id="SVGID_36_">
					<use xlink:href="#SVGID_35_"  overflow="visible"/>
				</clipPath>
				
					<rect x="68.893" y="134.202" transform="matrix(0.7071 -0.7071 0.7071 0.7071 -79.4914 99.5524)" clip-path="url(#SVGID_36_)" width="23.043" height="23.041"/>
				
					<rect x="68.893" y="134.202" transform="matrix(0.7071 -0.7071 0.7071 0.7071 -79.4914 99.5524)" clip-path="url(#SVGID_36_)" fill="none" stroke="#000000" stroke-width="1.29" width="23.043" height="23.041"/>
			</g>
		</g>
		
			<rect x="68" y="133.31" transform="matrix(0.707 -0.7072 0.7072 0.707 -79.1233 98.6638)" clip-path="url(#SVGID_4_)" fill="#C2072F" width="23.042" height="23.04"/>
		
			<rect x="68" y="133.31" transform="matrix(0.707 -0.7072 0.7072 0.707 -79.1233 98.6638)" clip-path="url(#SVGID_4_)" fill="none" stroke="#FFFFFF" stroke-width="1.29" width="23.042" height="23.04"/>
		<g opacity="0.75" clip-path="url(#SVGID_4_)">
			<g>
				<defs>
					<rect id="SVGID_37_" x="58.962" y="19.503" width="45.692" height="45.691"/>
				</defs>
				<clipPath id="SVGID_38_">
					<use xlink:href="#SVGID_37_"  overflow="visible"/>
				</clipPath>
				
					<rect x="66.508" y="27.052" transform="matrix(0.707 -0.7072 0.7072 0.707 -5.9822 70.2573)" clip-path="url(#SVGID_38_)" width="30.596" height="30.594"/>
				
					<rect x="66.508" y="27.052" transform="matrix(0.707 -0.7072 0.7072 0.707 -5.9822 70.2573)" clip-path="url(#SVGID_38_)" fill="none" stroke="#000000" stroke-width="1.713" width="30.596" height="30.594"/>
			</g>
		</g>
		
			<rect x="65.323" y="25.866" transform="matrix(0.707 -0.7072 0.7072 0.707 -5.4911 69.0716)" clip-path="url(#SVGID_4_)" fill="#C2072F" width="30.596" height="30.594"/>
		
			<rect x="65.323" y="25.866" transform="matrix(0.707 -0.7072 0.7072 0.707 -5.4911 69.0716)" clip-path="url(#SVGID_4_)" fill="none" stroke="#FFFFFF" stroke-width="1.713" width="30.596" height="30.594"/>
		<g opacity="0.75" clip-path="url(#SVGID_4_)">
			<g>
				<defs>
					<rect id="SVGID_39_" x="44.058" y="49.607" width="27.425" height="27.425"/>
				</defs>
				<clipPath id="SVGID_40_">
					<use xlink:href="#SVGID_39_"  overflow="visible"/>
				</clipPath>
				
					<rect x="48.588" y="54.139" transform="matrix(0.7071 -0.7072 0.7072 0.7071 -27.8542 59.4022)" clip-path="url(#SVGID_40_)" width="18.365" height="18.364"/>
				
					<rect x="48.588" y="54.139" transform="matrix(0.7071 -0.7072 0.7072 0.7071 -27.8542 59.4022)" clip-path="url(#SVGID_40_)" fill="none" stroke="#000000" stroke-width="1.028" width="18.365" height="18.364"/>
			</g>
		</g>
		
			<rect x="47.876" y="53.427" transform="matrix(0.7071 -0.7072 0.7072 0.7071 -27.5594 58.6902)" clip-path="url(#SVGID_4_)" fill="#C2072F" width="18.365" height="18.364"/>
		
			<rect x="47.876" y="53.427" transform="matrix(0.7071 -0.7072 0.7072 0.7071 -27.5594 58.6902)" clip-path="url(#SVGID_4_)" fill="none" stroke="#FFFFFF" stroke-width="1.028" width="18.365" height="18.364"/>
		<g opacity="0.75" clip-path="url(#SVGID_4_)">
			<g>
				<defs>
					<rect id="SVGID_41_" x="21.841" y="64.871" width="34.411" height="34.411"/>
				</defs>
				<clipPath id="SVGID_42_">
					<use xlink:href="#SVGID_41_"  overflow="visible"/>
				</clipPath>
				
					<rect x="27.524" y="70.556" transform="matrix(0.7071 -0.7071 0.7071 0.7071 -46.6022 51.6543)" clip-path="url(#SVGID_42_)" width="23.043" height="23.041"/>
				
					<rect x="27.524" y="70.556" transform="matrix(0.7071 -0.7071 0.7071 0.7071 -46.6022 51.6543)" clip-path="url(#SVGID_42_)" fill="none" stroke="#000000" stroke-width="1.29" width="23.043" height="23.041"/>
			</g>
		</g>
		
			<rect x="26.632" y="69.663" transform="matrix(0.707 -0.7072 0.7072 0.707 -46.2335 50.7638)" clip-path="url(#SVGID_4_)" fill="#C2072F" width="23.042" height="23.04"/>
		
			<rect x="26.632" y="69.663" transform="matrix(0.707 -0.7072 0.7072 0.707 -46.2335 50.7638)" clip-path="url(#SVGID_4_)" fill="none" stroke="#FFFFFF" stroke-width="1.29" width="23.042" height="23.04"/>
		<g opacity="0.75" clip-path="url(#SVGID_4_)">
			<g>
				<defs>
					<rect id="SVGID_43_" x="62.127" y="67.07" width="34.411" height="34.412"/>
				</defs>
				<clipPath id="SVGID_44_">
					<use xlink:href="#SVGID_43_"  overflow="visible"/>
				</clipPath>
				
					<rect x="67.81" y="72.756" transform="matrix(0.707 -0.7072 0.7072 0.707 -36.357 80.7903)" clip-path="url(#SVGID_44_)" width="23.042" height="23.04"/>
				
					<rect x="67.81" y="72.756" transform="matrix(0.707 -0.7072 0.7072 0.707 -36.357 80.7903)" clip-path="url(#SVGID_44_)" fill="none" stroke="#000000" stroke-width="1.29" width="23.042" height="23.04"/>
			</g>
		</g>
		
			<rect x="66.918" y="71.863" transform="matrix(0.7071 -0.7072 0.7072 0.7071 -35.9867 79.8956)" clip-path="url(#SVGID_4_)" fill="#C2072F" width="23.042" height="23.04"/>
		
			<rect x="66.918" y="71.863" transform="matrix(0.7071 -0.7072 0.7072 0.7071 -35.9867 79.8956)" clip-path="url(#SVGID_4_)" fill="none" stroke="#FFFFFF" stroke-width="1.29" width="23.042" height="23.04"/>
		<g opacity="0.75" clip-path="url(#SVGID_4_)">
			<g>
				<defs>
					<rect id="SVGID_45_" x="37.724" y="87.879" width="42.03" height="42.029"/>
				</defs>
				<clipPath id="SVGID_46_">
					<use xlink:href="#SVGID_45_"  overflow="visible"/>
				</clipPath>
				
					<rect x="44.665" y="94.823" transform="matrix(0.707 -0.7072 0.7072 0.707 -59.7989 73.4384)" clip-path="url(#SVGID_46_)" width="28.145" height="28.142"/>
				
					<rect x="44.665" y="94.823" transform="matrix(0.707 -0.7072 0.7072 0.707 -59.7989 73.4384)" clip-path="url(#SVGID_46_)" fill="none" stroke="#000000" stroke-width="1.575" width="28.145" height="28.142"/>
			</g>
		</g>
		
			<rect x="43.575" y="93.733" transform="matrix(0.7071 -0.7072 0.7072 0.7071 -59.3464 72.3451)" clip-path="url(#SVGID_4_)" fill="#C2072F" width="28.144" height="28.142"/>
		
			<rect x="43.575" y="93.733" transform="matrix(0.7071 -0.7072 0.7072 0.7071 -59.3464 72.3451)" clip-path="url(#SVGID_4_)" fill="none" stroke="#FFFFFF" stroke-width="1.575" width="28.144" height="28.142"/>
		<g opacity="0.75" clip-path="url(#SVGID_4_)">
			<g>
				<defs>
					<rect id="SVGID_47_" x="115.204" y="73.886" width="27.832" height="27.832"/>
				</defs>
				<clipPath id="SVGID_48_">
					<use xlink:href="#SVGID_47_"  overflow="visible"/>
				</clipPath>
				
					<rect x="119.801" y="78.484" transform="matrix(0.7071 -0.7072 0.7072 0.7071 -24.2645 117.0291)" clip-path="url(#SVGID_48_)" width="18.638" height="18.635"/>
				
					<rect x="119.801" y="78.484" transform="matrix(0.7071 -0.7072 0.7072 0.7071 -24.2645 117.0291)" clip-path="url(#SVGID_48_)" fill="none" stroke="#000000" stroke-width="1.043" width="18.638" height="18.635"/>
			</g>
		</g>
		
			<rect x="119.079" y="77.762" transform="matrix(0.7071 -0.7071 0.7071 0.7071 -23.9666 116.3009)" clip-path="url(#SVGID_4_)" fill="#C2072F" width="18.637" height="18.635"/>
		
			<rect x="119.079" y="77.762" transform="matrix(0.7071 -0.7071 0.7071 0.7071 -23.9666 116.3009)" clip-path="url(#SVGID_4_)" fill="none" stroke="#FFFFFF" stroke-width="1.043" width="18.637" height="18.635"/>
		<g opacity="0.75" clip-path="url(#SVGID_4_)">
			<g>
				<defs>
					<rect id="SVGID_49_" x="83.27" y="88.212" width="34.411" height="34.411"/>
				</defs>
				<clipPath id="SVGID_50_">
					<use xlink:href="#SVGID_49_"  overflow="visible"/>
				</clipPath>
				
					<rect x="88.953" y="93.898" transform="matrix(0.707 -0.7072 0.7072 0.707 -45.1139 101.9352)" clip-path="url(#SVGID_50_)" width="23.042" height="23.04"/>
				
					<rect x="88.953" y="93.898" transform="matrix(0.707 -0.7072 0.7072 0.707 -45.1139 101.9352)" clip-path="url(#SVGID_50_)" fill="none" stroke="#000000" stroke-width="1.29" width="23.042" height="23.04"/>
			</g>
		</g>
		
			<rect x="88.06" y="93.005" transform="matrix(0.7071 -0.7071 0.7071 0.7071 -44.744 101.0382)" clip-path="url(#SVGID_4_)" fill="#C2072F" width="23.043" height="23.041"/>
		
			<rect x="88.06" y="93.005" transform="matrix(0.7071 -0.7071 0.7071 0.7071 -44.744 101.0382)" clip-path="url(#SVGID_4_)" fill="none" stroke="#FFFFFF" stroke-width="1.29" width="23.043" height="23.041"/>
		<g opacity="0.75" clip-path="url(#SVGID_4_)">
			<g>
				<defs>
					<rect id="SVGID_51_" x="65.945" y="111.777" width="34.411" height="34.411"/>
				</defs>
				<clipPath id="SVGID_52_">
					<use xlink:href="#SVGID_51_"  overflow="visible"/>
				</clipPath>
				
					<rect x="71.628" y="117.462" transform="matrix(0.7071 -0.7071 0.7071 0.7071 -66.8522 96.5829)" clip-path="url(#SVGID_52_)" width="23.043" height="23.041"/>
				
					<rect x="71.628" y="117.462" transform="matrix(0.7071 -0.7071 0.7071 0.7071 -66.8522 96.5829)" clip-path="url(#SVGID_52_)" fill="none" stroke="#000000" stroke-width="1.29" width="23.043" height="23.041"/>
			</g>
		</g>
		
			<rect x="70.735" y="116.57" transform="matrix(0.707 -0.7072 0.7072 0.707 -66.4838 95.694)" clip-path="url(#SVGID_4_)" fill="#C2072F" width="23.042" height="23.04"/>
		
			<rect x="70.735" y="116.57" transform="matrix(0.707 -0.7072 0.7072 0.707 -66.4838 95.694)" clip-path="url(#SVGID_4_)" fill="none" stroke="#FFFFFF" stroke-width="1.29" width="23.042" height="23.04"/>
		<g opacity="0.75" clip-path="url(#SVGID_4_)">
			<g>
				<defs>
					<rect id="SVGID_53_" x="66.736" y="44.995" width="29.292" height="29.292"/>
				</defs>
				<clipPath id="SVGID_54_">
					<use xlink:href="#SVGID_53_"  overflow="visible"/>
				</clipPath>
				
					<rect x="71.573" y="49.834" transform="matrix(0.7071 -0.7071 0.7071 0.7071 -18.3362 75.0174)" clip-path="url(#SVGID_54_)" width="19.616" height="19.614"/>
				
					<rect x="71.573" y="49.834" transform="matrix(0.7071 -0.7071 0.7071 0.7071 -18.3362 75.0174)" clip-path="url(#SVGID_54_)" fill="none" stroke="#000000" stroke-width="1.098" width="19.616" height="19.614"/>
			</g>
		</g>
		
			<rect x="70.814" y="49.074" transform="matrix(0.7071 -0.7071 0.7071 0.7071 -18.0212 74.2574)" clip-path="url(#SVGID_4_)" fill="#C2072F" width="19.616" height="19.614"/>
		
			<rect x="70.814" y="49.074" transform="matrix(0.7071 -0.7071 0.7071 0.7071 -18.0212 74.2574)" clip-path="url(#SVGID_4_)" fill="none" stroke="#FFFFFF" stroke-width="1.098" width="19.616" height="19.614"/>
		<g opacity="0.75" clip-path="url(#SVGID_4_)">
			<g>
				<defs>
					<rect id="SVGID_55_" x="98.667" y="67.756" width="33.41" height="33.41"/>
				</defs>
				<clipPath id="SVGID_56_">
					<use xlink:href="#SVGID_55_"  overflow="visible"/>
				</clipPath>
				
					<rect x="104.185" y="73.276" transform="matrix(0.707 -0.7072 0.7072 0.707 -25.9298 106.3305)" clip-path="url(#SVGID_56_)" width="22.372" height="22.37"/>
				
					<rect x="104.185" y="73.276" transform="matrix(0.707 -0.7072 0.7072 0.707 -25.9298 106.3305)" clip-path="url(#SVGID_56_)" fill="none" stroke="#000000" stroke-width="1.252" width="22.372" height="22.37"/>
			</g>
		</g>
		
			<rect x="103.318" y="72.409" transform="matrix(0.7071 -0.7072 0.7072 0.7071 -25.5711 105.4611)" clip-path="url(#SVGID_4_)" fill="#C2072F" width="22.372" height="22.37"/>
		
			<rect x="103.318" y="72.409" transform="matrix(0.7071 -0.7072 0.7072 0.7071 -25.5711 105.4611)" clip-path="url(#SVGID_4_)" fill="none" stroke="#FFFFFF" stroke-width="1.252" width="22.372" height="22.37"/>
		<g opacity="0.75" clip-path="url(#SVGID_4_)">
			<g>
				<defs>
					<rect id="SVGID_57_" x="41.063" y="63.241" width="39.5" height="39.5"/>
				</defs>
				<clipPath id="SVGID_58_">
					<use xlink:href="#SVGID_57_"  overflow="visible"/>
				</clipPath>
				
					<rect x="47.587" y="69.767" transform="matrix(0.7071 -0.7071 0.7071 0.7071 -40.8729 67.3126)" clip-path="url(#SVGID_58_)" width="26.451" height="26.45"/>
				
					<rect x="47.587" y="69.767" transform="matrix(0.7071 -0.7071 0.7071 0.7071 -40.8729 67.3126)" clip-path="url(#SVGID_58_)" fill="none" stroke="#000000" stroke-width="1.481" width="26.451" height="26.45"/>
			</g>
		</g>
		
			<rect x="46.562" y="68.742" transform="matrix(0.7071 -0.7071 0.7071 0.7071 -40.4487 66.289)" clip-path="url(#SVGID_4_)" fill="#C2072F" width="26.452" height="26.45"/>
		
			<rect x="46.562" y="68.742" transform="matrix(0.7071 -0.7071 0.7071 0.7071 -40.4487 66.289)" clip-path="url(#SVGID_4_)" fill="none" stroke="#FFFFFF" stroke-width="1.481" width="26.452" height="26.45"/>
		<g opacity="0.75" clip-path="url(#SVGID_4_)">
			<g>
				<defs>
					<rect id="SVGID_59_" x="65.5" y="89.523" width="34.411" height="34.411"/>
				</defs>
				<clipPath id="SVGID_60_">
					<use xlink:href="#SVGID_59_"  overflow="visible"/>
				</clipPath>
				
					<rect x="71.182" y="95.208" transform="matrix(0.707 -0.7072 0.7072 0.707 -51.2467 89.7524)" clip-path="url(#SVGID_60_)" width="23.042" height="23.04"/>
				
					<rect x="71.182" y="95.208" transform="matrix(0.707 -0.7072 0.7072 0.707 -51.2467 89.7524)" clip-path="url(#SVGID_60_)" fill="none" stroke="#000000" stroke-width="1.29" width="23.042" height="23.04"/>
			</g>
		</g>
		
			<rect x="70.29" y="94.315" transform="matrix(0.707 -0.7072 0.7072 0.707 -50.8766 88.8596)" clip-path="url(#SVGID_4_)" fill="#C2072F" width="23.042" height="23.041"/>
		
			<rect x="70.29" y="94.315" transform="matrix(0.707 -0.7072 0.7072 0.707 -50.8766 88.8596)" clip-path="url(#SVGID_4_)" fill="none" stroke="#FFFFFF" stroke-width="1.29" width="23.042" height="23.041"/>
		<g opacity="0.75" clip-path="url(#SVGID_4_)">
			<g>
				<defs>
					<rect id="SVGID_61_" x="70.131" y="60.619" width="42.909" height="42.909"/>
				</defs>
				<clipPath id="SVGID_62_">
					<use xlink:href="#SVGID_61_"  overflow="visible"/>
				</clipPath>
				
					<rect x="77.218" y="67.709" transform="matrix(0.7071 -0.7072 0.7072 0.7071 -31.2101 88.8078)" clip-path="url(#SVGID_62_)" width="28.733" height="28.731"/>
				
					<rect x="77.218" y="67.709" transform="matrix(0.7071 -0.7072 0.7072 0.7071 -31.2101 88.8078)" clip-path="url(#SVGID_62_)" fill="none" stroke="#000000" stroke-width="1.608" width="28.733" height="28.731"/>
			</g>
		</g>
		
			<rect x="76.104" y="66.596" transform="matrix(0.707 -0.7072 0.7072 0.707 -30.7491 87.6966)" clip-path="url(#SVGID_4_)" fill="#C2072F" width="28.732" height="28.73"/>
		
			<rect x="76.104" y="66.596" transform="matrix(0.707 -0.7072 0.7072 0.707 -30.7491 87.6966)" clip-path="url(#SVGID_4_)" fill="none" stroke="#FFFFFF" stroke-width="1.608" width="28.732" height="28.73"/>
		<g opacity="0.75" clip-path="url(#SVGID_4_)">
			<g>
				<defs>
					<rect id="SVGID_63_" x="82.685" y="46.512" width="34.411" height="34.412"/>
				</defs>
				<clipPath id="SVGID_64_">
					<use xlink:href="#SVGID_63_"  overflow="visible"/>
				</clipPath>
				
					<rect x="88.368" y="52.198" transform="matrix(0.707 -0.7072 0.7072 0.707 -15.7965 89.3054)" clip-path="url(#SVGID_64_)" width="23.042" height="23.04"/>
				
					<rect x="88.368" y="52.198" transform="matrix(0.707 -0.7072 0.7072 0.707 -15.7965 89.3054)" clip-path="url(#SVGID_64_)" fill="none" stroke="#000000" stroke-width="1.29" width="23.042" height="23.04"/>
			</g>
		</g>
		
			<rect x="87.475" y="51.305" transform="matrix(0.7071 -0.7071 0.7071 0.7071 -15.4272 88.4091)" clip-path="url(#SVGID_4_)" fill="#C2072F" width="23.043" height="23.041"/>
		
			<rect x="87.475" y="51.305" transform="matrix(0.7071 -0.7071 0.7071 0.7071 -15.4272 88.4091)" clip-path="url(#SVGID_4_)" fill="none" stroke="#FFFFFF" stroke-width="1.29" width="23.043" height="23.041"/>
		
			<line clip-path="url(#SVGID_4_)" fill="none" stroke="#9C9E9F" stroke-width="2.5" stroke-miterlimit="10" x1="520.509" y1="40.535" x2="520.509" y2="121.5"/>
		<polygon clip-path="url(#SVGID_4_)" fill="#58585A" points="714.338,49.133 744.326,79.134 744.443,79.019 714.448,49.02 		"/>
		<rect x="714.407" y="80.917" clip-path="url(#SVGID_4_)" fill="#58585A" width="30.195" height="0.163"/>
		<path clip-path="url(#SVGID_4_)" fill="#58585A" d="M727.595,106.519c-0.528,1.77-0.817,3.644-0.817,5.584
			c0,0.259,0.008,0.522,0.017,0.781h0.322c-0.008-0.259-0.011-0.522-0.011-0.781c0-1.856,0.26-3.655,0.754-5.358"/>
		<path clip-path="url(#SVGID_4_)" fill="#58585A" d="M764.509,106.745c0.49,1.703,0.763,3.502,0.763,5.357
			c0,0.266-0.013,0.524-0.025,0.782h0.322c0.011-0.258,0.021-0.517,0.021-0.782c0-1.879-0.269-3.7-0.758-5.419"/>
		<polygon clip-path="url(#SVGID_4_)" fill="#58585A" points="714.449,112.929 714.338,112.816 745.165,81.982 745.285,82.096 		"/>
		<polygon clip-path="url(#SVGID_4_)" fill="#58585A" points="777.918,112.734 749.565,84.379 749.687,84.262 778.031,112.617 		"/>
		
			<rect x="747.862" y="80.921" transform="matrix(-1 -9.504873e-04 9.504873e-04 -1 1525.9597 162.7262)" clip-path="url(#SVGID_4_)" fill="#58585A" width="30.313" height="0.16"/>
		<rect x="746.169" y="93.02" clip-path="url(#SVGID_4_)" fill="#58585A" width="0.165" height="19.864"/>
		<path clip-path="url(#SVGID_4_)" fill="#58585A" d="M714.75,49.447h63.093v63.101H714.75V49.447z M714.191,113.104h64.2V48.897
			h-64.2V113.104z"/>
		<path clip-path="url(#SVGID_4_)" fill="#58585A" d="M746.31,49.736c-10.148,0-19.697,4.943-25.546,13.215
			c-4.819,6.814-6.688,15.096-5.273,23.322c1.41,8.225,5.939,15.406,12.755,20.225c5.307,3.752,11.533,5.732,18.007,5.732h0.004
			c10.142,0,19.69-4.939,25.533-13.212c4.824-6.819,6.698-15.102,5.281-23.327c-1.412-8.223-5.942-15.409-12.758-20.227
			C759.008,51.717,752.785,49.736,746.31,49.736 M746.256,112.785h-0.004c-6.588,0-12.93-2.021-18.321-5.833
			c-6.934-4.902-11.547-12.213-12.995-20.582c-1.434-8.372,0.477-16.805,5.374-23.741c5.952-8.422,15.673-13.449,26-13.449
			c6.588,0,12.925,2.019,18.325,5.835c6.936,4.903,11.55,12.213,12.981,20.582c1.443,8.37-0.465,16.8-5.368,23.74
			C766.302,107.753,756.576,112.785,746.256,112.785"/>
		<path clip-path="url(#SVGID_4_)" fill="#58585A" d="M762.045,65.503c4.843,0,9.171,2.233,12.016,5.722h0.412
			c-2.902-3.679-7.387-6.048-12.428-6.048c-3.689,0-7.078,1.277-9.771,3.398l0.106,0.33
			C755.029,66.78,758.386,65.503,762.045,65.503"/>
		<path clip-path="url(#SVGID_4_)" fill="#58585A" d="M761.471,96.795c0.188,0.005,0.385,0.012,0.573,0.012
			c8.722,0,15.817-7.091,15.817-15.813c0-3.351-1.049-6.469-2.845-9.028l-0.26,0.191c1.751,2.508,2.782,5.553,2.782,8.837
			c0,8.542-6.949,15.49-15.495,15.49c-0.228,0-0.45-0.008-0.682-0.017"/>
		<path clip-path="url(#SVGID_4_)" fill="#58585A" d="M776.046,71.225h-1.573c0.185,0.241,0.369,0.487,0.55,0.741L776.046,71.225z"
			/>
		<path clip-path="url(#SVGID_4_)" fill="#58585A" d="M774.758,72.158l0.259-0.191c-0.175-0.251-0.359-0.505-0.544-0.742h-0.412
			C774.308,71.524,774.537,71.837,774.758,72.158"/>
		<path clip-path="url(#SVGID_4_)" fill="#58585A" d="M761.462,96.78c-0.03-0.099-0.066-0.195-0.091-0.291L761.462,96.78z"/>
		<path clip-path="url(#SVGID_4_)" fill="#58585A" d="M764.045,104.512l-2.574-7.717c-1.577-0.061-3.088-0.349-4.516-0.836
			C760.073,98.05,762.559,101.019,764.045,104.512"/>
		<path clip-path="url(#SVGID_4_)" fill="#58585A" d="M753.104,71.225l-0.725-2.319c-3.547,2.842-5.824,7.203-5.824,12.087
			c0,8.311,6.587,15.111,14.807,15.474l-3.914-11.728l17.309-12.583c-0.219-0.322-0.456-0.631-0.696-0.931H753.104z"/>
		<path clip-path="url(#SVGID_4_)" fill="#58585A" d="M746.188,92.696c2.368,0,4.644,0.428,6.742,1.208
			c-4.046-2.866-6.698-7.584-6.698-12.909c0-5.031,2.366-9.521,6.044-12.42l-6.021-19.071l-6.951,21.721h-22.686l18.348,13.417
			l-6.621,19.819C731.313,97.546,738.183,92.696,746.188,92.696"/>
		<path clip-path="url(#SVGID_4_)" fill="#58585A" d="M764.635,106.288l-0.224,0.159c-2.403-7.777-9.661-13.431-18.222-13.431
			c-8.526,0-15.75,5.593-18.199,13.308l-0.204-0.165l-0.156,0.459l18.622-13.599l18.541,13.726L764.635,106.288z"/>
		<path clip-path="url(#SVGID_4_)" fill="#58585A" d="M727.721,106.114l0.065,0.045l0.56-1.697
			C728.119,104.996,727.907,105.548,727.721,106.114"/>
		<path clip-path="url(#SVGID_4_)" fill="#58585A" d="M764.688,106.249c-0.184-0.592-0.401-1.169-0.644-1.736l0.59,1.775
			L764.688,106.249z"/>
		
			<rect x="763.356" y="42.909" transform="matrix(-0.7056 -0.7086 0.7086 -0.7056 1256.9114 649.8272)" clip-path="url(#SVGID_4_)" fill="#58585A" width="0.165" height="41.836"/>
		<path clip-path="url(#SVGID_4_)" fill="#58585A" d="M569.806,55.744v23.717h14.437c8.262,0,12.532-4.955,12.532-11.859
			c0-6.806-4.271-11.858-12.532-11.858H569.806z M604.459,67.501c0,10.894-7.685,18.768-20.027,18.768h-14.626V113.1h-7.399V48.938
			h22.025C596.774,48.938,604.459,56.714,604.459,67.501"/>
		<path clip-path="url(#SVGID_4_)" fill="#58585A" d="M651.918,58.757l-5.41,4.177c-3.326-5.152-8.649-8.066-14.343-8.066
			c-5.788,0-11.107,3.01-11.107,9.33c0,5.836,4.364,7.973,10.065,10.793l6.928,3.404c9.12,4.469,14.617,9.234,14.617,17.89
			c0,10.787-8.631,17.886-20.218,17.886c-9.964,0-18.227-5.348-23.069-13.807l5.513-4.182c3.794,5.933,9.392,10.985,17.464,10.985
			c7.402,0,12.632-4.179,12.632-10.691c0-5.933-4.28-8.264-10.454-11.276l-7.022-3.404c-7.31-3.597-14.146-8.166-14.146-17.207
			c0-10.205,8.733-16.724,18.896-16.724C640.803,47.865,648.021,52.436,651.918,58.757"/>
		<polygon clip-path="url(#SVGID_4_)" fill="#58585A" points="665.823,48.938 665.823,113.1 702.947,113.1 702.947,106.292 
			673.228,106.292 673.228,48.938 		"/>
	</g>
</g>
</svg>
