<svg version="1.1" id="schema-3_xA0_Image_1_" xmlns="http://www.w3.org/2000/svg" xmlns:xlink="http://www.w3.org/1999/xlink" x="0px" y="0px" enable-background="new 0 0 400 400" xml:space="preserve" viewBox="108 161.48 229.35 79.97"> <g> 	<path fill="#78A4DF" d="M298.519,240.5c-21.413,0-38.833-17.421-38.833-38.834c0-21.412,17.42-38.833,38.833-38.833 &#9;&#9;s38.833,17.42,38.833,38.833C337.352,223.079,319.932,240.5,298.519,240.5L298.519,240.5z M298.519,165.833 &#9;&#9;c-19.759,0-35.833,16.074-35.833,35.833c0,19.759,16.074,35.834,35.833,35.834s35.833-16.075,35.833-35.834 &#9;&#9;C334.352,181.908,318.277,165.833,298.519,165.833L298.519,165.833z"/> </g> <g> 	<g> 		<path fill="#78A4DF" d="M197.42,212.44c-0.904,0-1.73-0.35-2.389-1.01l-12.225-12.225c-1.001-1-1.253-2.299-0.711-3.655 &#9;&#9;&#9;c0.541-1.352,1.67-2.127,3.099-2.127h24.453c1.429,0,2.558,0.776,3.098,2.128c0.535,1.336,0.276,2.669-0.712,3.656l-12.226,12.225 &#9;&#9;&#9;C199.149,212.091,198.323,212.44,197.42,212.44L197.42,212.44z M185.193,196.423c-0.184,0-0.217,0-0.313,0.242 &#9;&#9;&#9;c-0.106,0.267-0.071,0.302,0.047,0.42l12.227,12.226c0.12,0.12,0.189,0.13,0.267,0.13c0.077,0,0.146-0.01,0.264-0.129 &#9;&#9;&#9;l12.228-12.227c0.118-0.118,0.153-0.153,0.047-0.419c-0.097-0.242-0.13-0.242-0.312-0.242H185.193L185.193,196.423z"/> 	</g> </g> <g> 	<g> 		<path fill="#FFFFFF" d="M126,241.448h-6c-0.829,0-1.5-0.672-1.5-1.5s0.671-1.5,1.5-1.5h6c0.829,0,1.5,0.672,1.5,1.5 &#9;&#9;&#9;S126.829,241.448,126,241.448L126,241.448z"/> 	</g> 	<g> 		<path fill="#FFFFFF" d="M231.772,241.448H133c-0.829,0-1.5-0.672-1.5-1.5s0.671-1.5,1.5-1.5h98.773c3.032,0,5.5-2.468,5.5-5.5 &#9;&#9;&#9;v-62.971c0-3.033-2.468-5.5-5.5-5.5l-99.023,0c-0.829,0-1.5-0.671-1.5-1.5s0.671-1.5,1.5-1.5l99.023,0c4.687,0,8.5,3.813,8.5,8.5 &#9;&#9;&#9;v62.971C240.272,237.635,236.459,241.448,231.772,241.448L231.772,241.448z"/> 	</g> 	<g> 		<path fill="#FFFFFF" d="M118.5,164.477c-0.441,0-0.859-0.194-1.145-0.53s-0.408-0.781-0.335-1.216 &#9;&#9;&#9;c0.208-1.253,0.208-1.253,6.73-1.254c0.828,0,1.5,0.671,1.5,1.5c0,0.828-0.671,1.5-1.5,1.5L118.5,164.477L118.5,164.477z"/> 	</g> 	<g> 		<path fill="#FFFFFF" d="M113,241.448h-2c-0.829,0-1.5-0.672-1.5-1.5s0.671-1.5,1.5-1.5h2c0.829,0,1.5,0.672,1.5,1.5 &#9;&#9;&#9;S113.829,241.448,113,241.448L113,241.448z"/> 	</g> 	<g> 		<path fill="#FFFFFF" d="M109.5,164.477c-0.397,0-0.779-0.158-1.061-0.439c-0.281-0.281-0.439-0.663-0.439-1.061 &#9;&#9;&#9;c0-1.5,1.213-1.5,2.75-1.501h0c0.828,0,1.5,0.671,1.5,1.5c0,0.828-0.671,1.5-1.5,1.5L109.5,164.477L109.5,164.477L109.5,164.477z"/> 	</g> </g> <path fill="#78A4DF" d="M292,210.34l-8.34-8.34l-2.83,2.83L292,216l24-24l-2.83-2.83L292,210.34z"/> </svg>