<svg version="1.1" id="schema-2_xA0_Image_1_" xmlns="http://www.w3.org/2000/svg" xmlns:xlink="http://www.w3.org/1999/xlink" x="0px" y="0px" enable-background="new 0 0 400 400" xml:space="preserve" viewBox="44.42 109.08 305.55 202.37"> <g> 	<g> 		<g> 			<path fill="#FAA2A3" d="M91.951,213.906c-0.063,12.814-10.409,23.037-23.29,23.015c-12.8-0.023-23.242-10.426-23.242-23.154 &#9;&#9;&#9;&#9;c0-12.73,10.451-23.277,23.136-23.349C81.548,190.346,92.016,200.854,91.951,213.906z"/> 		</g> 		<g> 			<path fill="#FB4142" d="M68.704,237.921h-0.044c-13.366-0.024-24.24-10.86-24.24-24.154c0-13.352,10.825-24.274,24.13-24.349 &#9;&#9;&#9;&#9;l0.139,0c6.505,0,12.606,2.531,17.179,7.126c4.601,4.624,7.116,10.792,7.083,17.368C92.885,227.15,82.008,237.921,68.704,237.921 &#9;&#9;&#9;&#9;L68.704,237.921z M68.688,191.417l-0.128,0c-12.208,0.068-22.141,10.094-22.141,22.349c0,12.193,9.979,22.132,22.244,22.154 &#9;&#9;&#9;&#9;l0.041,1v-1c12.414,0,22.186-9.672,22.247-22.02c0.03-6.04-2.279-11.704-6.501-15.947 &#9;&#9;&#9;&#9;C80.255,193.739,74.658,191.417,68.688,191.417L68.688,191.417z"/> 		</g> 	</g> 	<g> 		<g> 			<path fill="#73D4B8" d="M192.261,110.083c-12.9-0.043-23.15,10.145-23.176,23.035c-0.026,12.949,10.116,23.319,22.904,23.419 &#9;&#9;&#9;&#9;c12.734,0.1,23.104-10.275,23.144-23.157C215.173,120.388,205.098,110.125,192.261,110.083z"/> 		</g> 		<g> 			<path fill="#00BC86" d="M192.172,157.537l-0.19,0c-13.427-0.105-23.924-10.832-23.896-24.421 &#9;&#9;&#9;&#9;c0.026-13.477,10.61-24.033,24.094-24.033c13.512,0.045,23.996,10.719,23.954,24.299 &#9;&#9;&#9;&#9;C216.092,146.701,205.343,157.537,192.172,157.537L192.172,157.537z M192.257,111.083c-12.443,0-22.148,9.68-22.172,22.037 &#9;&#9;&#9;&#9;c-0.025,12.474,9.6,22.321,21.912,22.417l0.175,0c12.071,0,21.923-9.941,21.961-22.161 &#9;&#9;&#9;&#9;C214.171,120.916,204.562,111.124,192.257,111.083L192.257,111.083z"/> 		</g> 	</g> 	<g> 		<path fill="#9CB8DF" d="M325.857,189.854c12.99,0.087,23.267,10.658,23.114,23.778c-0.147,12.653-10.753,23.094-23.448,23.081 &#9;&#9;&#9;c-12.841-0.013-23.526-10.803-23.433-23.663C302.186,200.067,312.739,189.767,325.857,189.854z"/> 		<path fill="#78A4DF" d="M325.547,237.714h-0.024c-6.472-0.007-12.603-2.598-17.263-7.297c-4.671-4.709-7.216-10.879-7.169-17.373 &#9;&#9;&#9;c0.099-13.564,10.904-24.19,24.6-24.19l0.174,0c6.507,0.043,12.584,2.607,17.111,7.218c4.589,4.674,7.073,10.914,6.996,17.572 &#9;&#9;&#9;C349.817,226.916,338.86,237.714,325.547,237.714L325.547,237.714z M325.69,190.854c-12.582,0-22.509,9.753-22.6,22.204 &#9;&#9;&#9;c-0.044,5.959,2.297,11.623,6.589,15.951c4.282,4.318,9.909,6.699,15.845,6.705l0.022,1v-1c12.223,0,22.283-9.911,22.425-22.093 &#9;&#9;&#9;c0.071-6.122-2.21-11.856-6.424-16.147c-4.151-4.229-9.727-6.579-15.697-6.619L325.69,190.854L325.69,190.854z"/> 	</g> 	<g> 		<path fill="#FB4142" d="M67.092,206.675c0.057-1.186,0.788-1.687,1.954-1.666c1.18,0.021,1.854,0.595,1.88,1.76 &#9;&#9;&#9;c0.055,2.459,0.062,4.92,0.054,7.38c-0.005,1.368-0.108,2.688-2.027,2.649c-1.929-0.038-1.904-1.413-1.936-2.744 &#9;&#9;&#9;C66.989,212.905,67.031,207.945,67.092,206.675z"/> 	</g> </g> <path fill="#FFFFFF" d="M193.631,221.585c-0.002,0-0.003,0-0.005,0l-0.322,0.001c-0.828,0.003-1.495,0.677-1.489,1.506 &#9;c0.006,0.826,0.679,1.494,1.505,1.494c0.002,0,0.004,0,0.005,0c0.004,0,0.008,0,0.012,0h0.001c0.073,0,0.146-0.001,0.22-0.001h0.002 &#9;c0.005,0,0.01,0,0.014,0c0.001,0,0.003,0,0.005,0c0.004,0,0.008,0,0.012,0c0.003,0,0.006,0,0.009,0s0.006,0,0.009,0 &#9;c0.005,0,0.012,0,0.018,0l0,0c0.829-0.003,1.5-0.677,1.5-1.505C195.125,222.253,194.457,221.585,193.631,221.585L193.631,221.585z &#9; M187.133,222.067c-0.076,0-0.152,0.006-0.229,0.018l-0.318,0.049c-0.819,0.126-1.378,0.892-1.25,1.71 &#9;c0.117,0.74,0.758,1.271,1.486,1.271c0.076,0,0.153-0.006,0.23-0.019c0.072-0.011,0.144-0.022,0.216-0.033c0.001,0,0.003,0,0.004,0 &#9;c0.003-0.001,0.007-0.002,0.01-0.002c0.001,0,0.006-0.001,0.007-0.001c0.004-0.001,0.007-0.001,0.011-0.002 &#9;c0.003,0,0.003,0,0.006-0.001c0.004,0,0.009-0.001,0.014-0.002h0.001c0.009-0.001,0.019-0.003,0.027-0.004 &#9;c0.819-0.126,1.383-0.893,1.26-1.712C188.497,222.599,187.86,222.067,187.133,222.067L187.133,222.067z M180.773,223.518 &#9;c-0.148,0-0.299,0.022-0.448,0.068l-0.307,0.097c-0.791,0.248-1.228,1.089-0.978,1.878c0.203,0.641,0.797,1.051,1.436,1.051 &#9;c0.149,0,0.3-0.022,0.449-0.069c0.096-0.03,0.192-0.061,0.288-0.09c0.79-0.249,1.231-1.091,0.986-1.882 &#9;C182.001,223.929,181.411,223.518,180.773,223.518L180.773,223.518z M174.705,225.909c-0.221,0-0.445,0.05-0.657,0.153l-0.289,0.141 &#9;c-0.744,0.364-1.05,1.262-0.684,2.004c0.262,0.531,0.796,0.84,1.352,0.84c0.222,0,0.447-0.05,0.659-0.153 &#9;c0.003-0.002,0.007-0.004,0.011-0.005c0.086-0.043,0.172-0.085,0.258-0.127c0.744-0.364,1.055-1.264,0.693-2.009 &#9;C175.792,226.22,175.259,225.909,174.705,225.909L174.705,225.909z M169.067,229.186c-0.293,0-0.589,0.087-0.85,0.267l-0.264,0.183 &#9;c-0.682,0.472-0.85,1.404-0.376,2.084c0.292,0.419,0.761,0.645,1.237,0.645c0.295,0,0.594-0.087,0.855-0.268 &#9;c0.021-0.016,0.043-0.03,0.065-0.046c0.001-0.001,0.005-0.003,0.006-0.004c0.002-0.001,0.004-0.003,0.007-0.005 &#9;c0.035-0.024,0.07-0.049,0.106-0.073c0.002-0.002,0.005-0.003,0.007-0.005c0.001-0.001,0.004-0.003,0.005-0.004 &#9;c0.017-0.011,0.033-0.022,0.05-0.034c0.681-0.471,0.854-1.407,0.384-2.09C170.01,229.413,169.542,229.186,169.067,229.186 &#9;L169.067,229.186z M163.983,233.267c-0.367,0-0.735,0.135-1.023,0.406l-0.234,0.221c-0.604,0.567-0.631,1.515-0.061,2.116 &#9;c0.296,0.312,0.694,0.47,1.093,0.47c0.37,0,0.741-0.135,1.031-0.408c0.021-0.02,0.042-0.039,0.062-0.059h0 &#9;c0.003-0.003,0.006-0.006,0.009-0.009s0.006-0.006,0.009-0.009c0-0.001,0.001-0.001,0.001-0.001c0.046-0.043,0.092-0.087,0.138-0.13 &#9;c0.602-0.567,0.632-1.518,0.067-2.122C164.782,233.426,164.383,233.267,163.983,233.267L163.983,233.267z M159.565,238.059 &#9;c-0.442,0-0.88,0.196-1.175,0.571l-0.199,0.253c-0.512,0.65-0.398,1.592,0.254,2.102c0.275,0.215,0.602,0.318,0.925,0.318 &#9;c0.446,0,0.887-0.196,1.184-0.573c0.018-0.022,0.037-0.048,0.055-0.07c0.044-0.056,0.087-0.11,0.131-0.166 &#9;c0.512-0.651,0.401-1.596-0.248-2.11C160.218,238.164,159.89,238.059,159.565,238.059L159.565,238.059z M155.909,243.456 &#9;c-0.52,0-1.025,0.272-1.3,0.758l-0.159,0.279c-0.409,0.72-0.156,1.634,0.566,2.04c0.233,0.132,0.486,0.194,0.737,0.194 &#9;c0.524,0,1.034-0.274,1.311-0.762c0.005-0.011,0.012-0.021,0.018-0.031c0.001-0.003,0.003-0.006,0.004-0.009 &#9;c0.001-0.001,0.003-0.005,0.003-0.006c0.002-0.004,0.004-0.008,0.006-0.012l0.001-0.002c0.027-0.048,0.054-0.096,0.081-0.143 &#9;c0.001-0.003,0.004-0.008,0.005-0.01c0,0,0.001-0.001,0.001-0.002c0.009-0.016,0.019-0.031,0.028-0.048 &#9;c0.409-0.72,0.158-1.638-0.561-2.049C156.416,243.521,156.161,243.456,155.909,243.456L155.909,243.456z M153.101,249.343 &#9;c-0.601,0-1.167,0.365-1.395,0.961l-0.115,0.3c-0.296,0.774,0.092,1.639,0.866,1.933c0.175,0.066,0.355,0.098,0.532,0.098 &#9;c0.606,0,1.178-0.368,1.407-0.967c0.002-0.008,0.005-0.015,0.008-0.022c0.028-0.073,0.056-0.148,0.085-0.222 &#9;c0-0.002,0.001-0.004,0.002-0.006c0.001-0.003,0.002-0.005,0.003-0.009c0.001-0.003,0.003-0.007,0.004-0.011l0-0.002 &#9;c0.001-0.003,0.002-0.006,0.003-0.009c0.296-0.774-0.09-1.644-0.862-1.942C153.463,249.375,153.28,249.343,153.101,249.343 &#9;L153.101,249.343z M151.21,255.585c-0.688,0-1.306,0.478-1.458,1.178l-0.068,0.313c-0.176,0.81,0.338,1.606,1.148,1.779 &#9;c0.105,0.023,0.211,0.034,0.315,0.034c0.693,0,1.317-0.481,1.47-1.186c0.017-0.08,0.035-0.16,0.052-0.24 &#9;c0.004-0.017,0.008-0.036,0.012-0.054c0.176-0.809-0.337-1.61-1.146-1.789C151.427,255.597,151.318,255.585,151.21,255.585 &#9;L151.21,255.585z M150.283,262.039c-0.782,0-1.438,0.606-1.49,1.399l-0.021,0.32c-0.053,0.826,0.574,1.537,1.401,1.588 &#9;c0.031,0.002,0.062,0.003,0.092,0.003c0.787,0,1.45-0.613,1.501-1.409c0.003-0.054,0.006-0.106,0.01-0.16c0-0.001,0-0.003,0-0.005 &#9;s0-0.005,0-0.007c0.003-0.044,0.006-0.086,0.009-0.129c0.052-0.826-0.575-1.541-1.401-1.597 &#9;C150.352,262.04,150.317,262.039,150.283,262.039L150.283,262.039z M150.328,268.558c-0.041,0-0.081,0.001-0.122,0.005 &#9;c-0.826,0.066-1.439,0.789-1.37,1.615l0.027,0.32c0.065,0.78,0.718,1.369,1.487,1.369c0.044,0,0.088-0.002,0.133-0.006 &#9;c0.825-0.072,1.437-0.8,1.368-1.625c-0.003-0.037-0.006-0.072-0.009-0.109c0-0.004,0-0.008-0.001-0.012c0,0,0-0.002,0-0.003 &#9;c-0.005-0.059-0.01-0.117-0.014-0.176C151.76,269.152,151.102,268.558,150.328,268.558L150.328,268.558z M151.337,274.999 &#9;c-0.114,0-0.229,0.013-0.345,0.04c-0.807,0.189-1.304,0.996-1.112,1.802l0.075,0.312c0.164,0.688,0.776,1.148,1.452,1.148 &#9;c0.117,0,0.236-0.014,0.354-0.043c0.805-0.195,1.302-1.007,1.109-1.812h0c-0.001-0.006-0.002-0.012-0.004-0.017 &#9;c0-0.002,0-0.003-0.001-0.004c-0.001-0.004-0.002-0.008-0.003-0.012c0-0.003-0.001-0.005-0.001-0.008 &#9;c-0.001-0.003-0.001-0.006-0.002-0.008c-0.001-0.004-0.002-0.007-0.002-0.011l-0.001-0.003c-0.013-0.056-0.027-0.112-0.04-0.168 &#9;c0-0.002-0.001-0.004-0.001-0.005c0-0.002,0-0.004-0.001-0.006c-0.004-0.017-0.008-0.035-0.013-0.053 &#9;C152.636,275.464,152.018,274.999,151.337,274.999L151.337,274.999z M153.305,281.216c-0.187,0-0.376,0.035-0.561,0.109 &#9;c-0.769,0.309-1.139,1.182-0.827,1.949l0.121,0.298c0.236,0.581,0.794,0.933,1.384,0.933c0.189,0,0.382-0.036,0.568-0.113 &#9;c0.767-0.314,1.135-1.19,0.824-1.958c-0.007-0.018-0.015-0.035-0.021-0.052c0-0.001,0-0.002,0-0.002 &#9;c-0.002-0.004-0.004-0.009-0.005-0.013c-0.001-0.003-0.002-0.006-0.003-0.009c0-0.001-0.001-0.002-0.001-0.003 &#9;c-0.027-0.066-0.054-0.134-0.081-0.2C154.463,281.571,153.899,281.216,153.305,281.216L153.305,281.216z M156.187,287.065 &#9;c-0.26,0-0.523,0.067-0.763,0.209c-0.713,0.421-0.948,1.339-0.525,2.051l0.165,0.276c0.28,0.471,0.776,0.731,1.285,0.731 &#9;c0.262,0,0.527-0.068,0.768-0.214c0.71-0.426,0.943-1.348,0.52-2.06c-0.006-0.01-0.012-0.021-0.018-0.031 &#9;c-0.001-0.001-0.002-0.003-0.003-0.004c-0.001-0.002-0.002-0.003-0.003-0.006c-0.043-0.072-0.087-0.145-0.129-0.218 &#9;C157.201,287.328,156.7,287.065,156.187,287.065L156.187,287.065z M159.913,292.416c-0.334,0-0.67,0.11-0.949,0.338 &#9;c-0.643,0.522-0.738,1.466-0.213,2.106l0.204,0.248c0.296,0.361,0.725,0.548,1.157,0.548c0.335,0,0.672-0.112,0.951-0.342 &#9;c0.639-0.527,0.731-1.475,0.206-2.115c-0.031-0.037-0.063-0.076-0.094-0.114c-0.002-0.003-0.005-0.006-0.007-0.009 &#9;c-0.001-0.001-0.002-0.003-0.002-0.003c-0.003-0.004-0.006-0.008-0.009-0.011l-0.002-0.002c-0.003-0.004-0.006-0.008-0.009-0.011 &#9;l-0.001-0.001c-0.008-0.011-0.017-0.021-0.026-0.032c0-0.001-0.003-0.004-0.004-0.005s-0.002-0.003-0.003-0.004 &#9;c-0.011-0.014-0.022-0.028-0.033-0.041C160.781,292.604,160.348,292.416,159.913,292.416L159.913,292.416z M164.395,297.151 &#9;c-0.409,0-0.817,0.165-1.114,0.491c-0.558,0.613-0.512,1.56,0.103,2.115l0.238,0.216c0.287,0.259,0.645,0.386,1.002,0.386 &#9;c0.41,0,0.817-0.167,1.113-0.497c0.553-0.616,0.503-1.566-0.111-2.122c-0.012-0.01-0.023-0.021-0.035-0.03l-0.001-0.002 &#9;c-0.003-0.002-0.006-0.005-0.009-0.008c-0.003-0.002-0.006-0.005-0.009-0.008c-0.001-0.001-0.002-0.002-0.003-0.003 &#9;c-0.009-0.009-0.017-0.016-0.027-0.024h-0.001c-0.004-0.004-0.007-0.007-0.011-0.011c-0.002-0.002-0.003-0.003-0.005-0.005 &#9;s-0.005-0.004-0.007-0.006c-0.002-0.003-0.005-0.005-0.008-0.008l-0.001-0.001c-0.031-0.027-0.062-0.056-0.092-0.084 &#9;c-0.004-0.003-0.009-0.008-0.013-0.012C165.116,297.279,164.755,297.151,164.395,297.151L164.395,297.151z M169.532,301.167 &#9;c-0.486,0-0.964,0.234-1.254,0.669c-0.46,0.688-0.273,1.618,0.417,2.075l0.268,0.178c0.254,0.169,0.542,0.25,0.825,0.25 &#9;c0.486,0,0.962-0.237,1.25-0.675c0.455-0.691,0.264-1.623-0.426-2.081c-0.031-0.021-0.062-0.04-0.092-0.061 &#9;c-0.049-0.032-0.098-0.064-0.146-0.097c-0.004-0.003-0.008-0.006-0.013-0.009C170.106,301.247,169.817,301.167,169.532,301.167 &#9;L169.532,301.167z M175.211,304.37c-0.566,0-1.109,0.32-1.365,0.866c-0.352,0.75-0.027,1.641,0.724,1.99l0.292,0.135 &#9;c0.204,0.095,0.418,0.14,0.629,0.14c0.565,0,1.105-0.322,1.358-0.87c0.346-0.753,0.018-1.646-0.733-1.994 &#9;c-0.091-0.042-0.182-0.084-0.272-0.127C175.639,304.415,175.423,304.37,175.211,304.37L175.211,304.37z M181.307,306.684 &#9;c-0.65,0-1.25,0.425-1.444,1.079c-0.234,0.794,0.22,1.626,1.016,1.858l0.309,0.09c0.14,0.041,0.281,0.06,0.419,0.06 &#9;c0.649,0,1.247-0.426,1.435-1.082c0.229-0.796-0.23-1.629-1.026-1.861c-0.024-0.007-0.049-0.014-0.073-0.021 &#9;c-0.011-0.004-0.023-0.007-0.035-0.011c0,0,0,0,0,0c-0.006-0.002-0.011-0.003-0.017-0.005c0,0,0,0-0.001,0 &#9;c-0.005-0.002-0.011-0.003-0.016-0.005c-0.001,0-0.002,0-0.003-0.001c-0.004-0.001-0.009-0.003-0.013-0.004 &#9;c-0.001,0-0.003-0.001-0.005-0.001c-0.004-0.001-0.006-0.002-0.009-0.003c-0.039-0.011-0.077-0.022-0.115-0.034 &#9;C181.587,306.703,181.446,306.684,181.307,306.684L181.307,306.684z M187.681,308.052c-0.741,0-1.387,0.548-1.49,1.301 &#9;c-0.112,0.821,0.462,1.575,1.283,1.685l0.319,0.043c0.067,0.009,0.134,0.013,0.2,0.013c0.74,0,1.382-0.548,1.479-1.303 &#9;c0.106-0.82-0.472-1.575-1.292-1.686c-0.1-0.013-0.2-0.026-0.299-0.04C187.814,308.056,187.747,308.052,187.681,308.052 &#9;L187.681,308.052z M194.489,308.446c-0.008,0-0.016,0-0.024,0.001c-0.024,0-0.047,0-0.071,0.001c-0.002,0-0.004,0-0.006,0 &#9;c-0.001,0-0.003,0-0.005,0c-0.073,0.001-0.146,0.003-0.218,0.003c-0.828,0.014-1.491,0.696-1.481,1.524 &#9;c0.011,0.82,0.677,1.476,1.494,1.476c0.008,0,0.017,0,0.025,0l0.321-0.005c0.828-0.014,1.486-0.695,1.47-1.524 &#9;C195.978,309.103,195.307,308.446,194.489,308.446L194.489,308.446z M200.98,307.835c-0.082,0-0.165,0.007-0.249,0.021 &#9;c-0.029,0.005-0.062,0.011-0.092,0.016c-0.001,0-0.002,0-0.003,0c-0.004,0.001-0.01,0.002-0.014,0.003c-0.002,0-0.004,0-0.006,0.001 &#9;c-0.004,0-0.007,0.001-0.012,0.002c-0.002,0-0.004,0.001-0.007,0.001c-0.004,0.001-0.005,0.001-0.01,0.002 &#9;c-0.002,0-0.005,0.001-0.008,0.001s-0.005,0.001-0.008,0.001c-0.012,0.002-0.024,0.005-0.037,0.007c-0.001,0-0.005,0-0.006,0.001 &#9;c-0.004,0-0.007,0.001-0.011,0.002c-0.002,0-0.005,0-0.006,0.001c-0.004,0-0.008,0.001-0.011,0.001 &#9;c-0.003,0.001-0.004,0.001-0.007,0.001c-0.004,0.001-0.007,0.002-0.01,0.002c-0.003,0.001-0.006,0.001-0.009,0.002 &#9;c-0.003,0-0.005,0-0.008,0.001c-0.005,0.001-0.007,0.001-0.011,0.002c-0.003,0-0.005,0-0.007,0.001 &#9;c-0.007,0.001-0.01,0.002-0.017,0.003c-0.817,0.136-1.372,0.909-1.238,1.728c0.12,0.733,0.753,1.254,1.472,1.254 &#9;c0.082,0,0.165-0.007,0.249-0.021l0.316-0.053c0.817-0.136,1.367-0.909,1.228-1.726C202.338,308.354,201.7,307.835,200.98,307.835 &#9;L200.98,307.835z M207.306,306.256c-0.155,0-0.312,0.024-0.468,0.075c-0.056,0.019-0.11,0.037-0.166,0.055 &#9;c-0.004,0.001-0.008,0.003-0.012,0.004c0,0-0.001,0-0.002,0.001c-0.034,0.011-0.069,0.022-0.104,0.033 &#9;c0,0.001-0.001,0.001-0.001,0.001c-0.787,0.258-1.219,1.106-0.964,1.895c0.205,0.633,0.791,1.034,1.421,1.034 &#9;c0.154,0,0.312-0.023,0.467-0.074l0.306-0.101c0.787-0.258,1.214-1.104,0.953-1.891 &#9;C208.526,306.656,207.938,306.256,207.306,306.256L207.306,306.256z M213.322,303.742c-0.229,0-0.46,0.052-0.677,0.161 &#9;c-0.065,0.034-0.133,0.067-0.199,0.102c-0.003,0.001-0.007,0.003-0.01,0.005c-0.001,0-0.004,0.002-0.005,0.002 &#9;c-0.018,0.009-0.036,0.019-0.055,0.027c-0.739,0.374-1.038,1.277-0.667,2.018c0.263,0.524,0.789,0.826,1.337,0.826 &#9;c0.227,0,0.457-0.052,0.674-0.161l0.287-0.146c0.739-0.373,1.033-1.274,0.657-2.013C214.399,304.043,213.87,303.742,213.322,303.742 &#9;L213.322,303.742z M218.893,300.354c-0.302,0-0.606,0.091-0.871,0.278c-0.081,0.059-0.162,0.116-0.244,0.174 &#9;c-0.675,0.48-0.835,1.418-0.357,2.095c0.291,0.413,0.753,0.634,1.222,0.634c0.3,0,0.603-0.09,0.865-0.277l0.263-0.187 &#9;c0.675-0.479,0.831-1.415,0.349-2.088C219.824,300.572,219.361,300.354,218.893,300.354L218.893,300.354z M223.896,296.173 &#9;c-0.376,0-0.753,0.14-1.045,0.421c-0.027,0.026-0.053,0.052-0.08,0.078c-0.001,0-0.002,0.001-0.003,0.002 &#9;c-0.003,0.004-0.007,0.007-0.011,0.011c-0.001,0.001-0.001,0.001-0.002,0.002c-0.004,0.004-0.008,0.008-0.012,0.011 &#9;c0,0-0.001,0.001-0.001,0.002c-0.009,0.008-0.019,0.017-0.026,0.025h-0.001c-0.005,0.005-0.007,0.007-0.012,0.012 &#9;c-0.002,0.002-0.004,0.003-0.005,0.005c-0.002,0.002-0.004,0.004-0.006,0.006c-0.02,0.019-0.039,0.037-0.058,0.056 &#9;c-0.597,0.575-0.615,1.526-0.042,2.124c0.294,0.307,0.687,0.461,1.079,0.461c0.374,0,0.748-0.139,1.038-0.419l0.231-0.224 &#9;c0.596-0.575,0.611-1.523,0.033-2.117C224.681,296.325,224.288,296.173,223.896,296.173L223.896,296.173z M228.221,291.293 &#9;c-0.453,0-0.9,0.203-1.197,0.59c-0.02,0.026-0.039,0.052-0.06,0.078c-0.001,0.002-0.003,0.004-0.004,0.006 &#9;c-0.002,0.003-0.004,0.005-0.006,0.007c-0.003,0.004-0.006,0.009-0.01,0.013v0.001c-0.003,0.004-0.008,0.01-0.011,0.015 &#9;c-0.001,0-0.001,0.001-0.002,0.001c-0.003,0.004-0.006,0.009-0.01,0.013c0,0.001-0.001,0.002-0.002,0.004 &#9;c-0.003,0.003-0.005,0.006-0.008,0.009c-0.001,0.002-0.003,0.005-0.005,0.007c-0.001,0.002-0.003,0.005-0.005,0.007 &#9;s-0.004,0.005-0.006,0.007c-0.001,0.001-0.002,0.004-0.003,0.005c-0.009,0.011-0.017,0.021-0.025,0.032 &#9;c-0.001,0.001-0.001,0.001-0.002,0.002c-0.002,0.003-0.004,0.006-0.006,0.009c-0.002,0.002-0.003,0.004-0.005,0.006 &#9;s-0.003,0.004-0.005,0.006c-0.003,0.004-0.006,0.008-0.009,0.013l0,0c-0.504,0.657-0.381,1.601,0.274,2.106 &#9;c0.272,0.211,0.594,0.312,0.913,0.312c0.448,0,0.893-0.202,1.188-0.586l0.195-0.256c0.504-0.657,0.377-1.597-0.282-2.099 &#9;C228.858,291.394,228.538,291.293,228.221,291.293L228.221,291.293z M231.769,285.823c-0.53,0-1.046,0.28-1.32,0.777 &#9;c-0.021,0.038-0.042,0.077-0.062,0.115l-0.001,0.001c-0.002,0.005-0.006,0.011-0.008,0.016c-0.003,0.004-0.005,0.008-0.008,0.013 &#9;v0.001c-0.021,0.039-0.044,0.079-0.065,0.118c-0.4,0.726-0.138,1.64,0.587,2.042c0.23,0.128,0.479,0.189,0.726,0.189 &#9;c0.526,0,1.037-0.279,1.31-0.774l0.155-0.281c0.399-0.726,0.135-1.636-0.593-2.033C232.26,285.882,232.013,285.823,231.769,285.823 &#9;L231.769,285.823z M234.455,279.881c-0.613,0-1.189,0.378-1.413,0.985c-0.034,0.095-0.069,0.188-0.104,0.282 &#9;c-0.286,0.777,0.11,1.642,0.887,1.931c0.173,0.064,0.35,0.095,0.522,0.095c0.608,0,1.18-0.374,1.402-0.979l0.11-0.302 &#9;c0.286-0.777-0.112-1.637-0.891-1.921C234.8,279.91,234.626,279.881,234.455,279.881L234.455,279.881z M236.216,273.602 &#9;c-0.701,0-1.329,0.492-1.475,1.205c-0.002,0.011-0.004,0.021-0.007,0.032c-0.017,0.087-0.035,0.176-0.054,0.262 &#9;c-0.165,0.812,0.358,1.606,1.169,1.774c0.104,0.021,0.206,0.032,0.307,0.032c0.695,0,1.317-0.487,1.462-1.196l0.064-0.315 &#9;c0.166-0.812-0.358-1.602-1.171-1.765C236.412,273.611,236.313,273.602,236.216,273.602L236.216,273.602z M237.014,267.131 &#9;c-0.796,0-1.462,0.625-1.503,1.429c-0.001,0.021-0.002,0.043-0.003,0.065c0,0.001,0,0.005,0,0.006 &#9;c-0.001,0.003-0.001,0.006-0.001,0.008c0,0.005,0,0.008,0,0.012c-0.001,0.002-0.001,0.004-0.001,0.006c0,0.005,0,0.007,0,0.013 &#9;c0,0.002,0,0.003-0.001,0.005c0,0.005,0,0.009,0,0.013c0,0.002,0,0.005-0.001,0.007c0,0.003,0,0.006,0,0.009s0,0.007-0.001,0.01 &#9;v0.003c-0.002,0.048-0.005,0.096-0.008,0.145c-0.042,0.827,0.594,1.534,1.421,1.58c0.028,0.002,0.057,0.002,0.084,0.002 &#9;c0.79,0,1.45-0.618,1.491-1.418l0.017-0.321c0.042-0.827-0.594-1.529-1.422-1.569C237.062,267.132,237.037,267.131,237.014,267.131 &#9;L237.014,267.131z M236.846,260.615c-0.05,0-0.101,0.003-0.152,0.008c-0.823,0.083-1.427,0.818-1.347,1.644 &#9;c0,0.005,0.001,0.013,0.002,0.018c0,0.003,0,0.005,0,0.007c0.001,0.003,0.001,0.007,0.001,0.009 &#9;c0.004,0.042,0.009,0.084,0.013,0.126c0,0.002,0,0.005,0.001,0.008c0,0.001,0,0.002,0,0.003c0.004,0.045,0.008,0.086,0.013,0.13 &#9;c0.076,0.776,0.731,1.358,1.496,1.358c0.047,0,0.095-0.002,0.142-0.007c0.825-0.077,1.429-0.808,1.349-1.633l-0.031-0.319 &#9;C238.256,261.192,237.606,260.615,236.846,260.615L236.846,260.615z M235.706,254.194c-0.124,0-0.249,0.016-0.374,0.048 &#9;c-0.802,0.206-1.288,1.023-1.085,1.827c0.013,0.048,0.024,0.097,0.037,0.146v0.001c0.001,0.004,0.003,0.011,0.004,0.015 &#9;s0.002,0.008,0.003,0.012l0.001,0.003c0.009,0.038,0.019,0.076,0.028,0.115c0.172,0.682,0.786,1.137,1.459,1.137 &#9;c0.12,0,0.242-0.015,0.364-0.045c0.804-0.2,1.291-1.013,1.088-1.816l-0.079-0.312C236.981,254.646,236.374,254.194,235.706,254.194 &#9;L235.706,254.194z M233.609,248.019c-0.195,0-0.394,0.038-0.585,0.12c-0.762,0.324-1.119,1.205-0.798,1.969 &#9;c0.017,0.04,0.034,0.08,0.051,0.121c0.001,0.001,0.002,0.003,0.002,0.004c0.002,0.004,0.003,0.007,0.004,0.011 &#9;c0.002,0.003,0.003,0.006,0.005,0.01c0,0.001,0.001,0.003,0.002,0.004c0.018,0.043,0.035,0.085,0.053,0.128 &#9;c0.242,0.574,0.802,0.921,1.389,0.921c0.193,0,0.39-0.037,0.578-0.116c0.765-0.319,1.124-1.196,0.803-1.96l-0.125-0.296 &#9;C234.746,248.361,234.192,248.019,233.609,248.019L233.609,248.019z M230.609,242.229c-0.268,0-0.539,0.072-0.784,0.224 &#9;c-0.705,0.435-0.926,1.36-0.493,2.067c0.011,0.017,0.021,0.034,0.032,0.051c0.042,0.068,0.084,0.138,0.125,0.206 &#9;c0.284,0.462,0.779,0.718,1.285,0.718c0.267,0,0.536-0.071,0.78-0.219c0.708-0.431,0.931-1.352,0.498-2.059l-0.168-0.273 &#9;C231.603,242.482,231.112,242.229,230.609,242.229L230.609,242.229z M226.778,236.954c-0.341,0-0.685,0.116-0.966,0.354 &#9;c-0.632,0.535-0.712,1.483-0.179,2.117c0.018,0.021,0.034,0.041,0.052,0.062c0.003,0.003,0.006,0.007,0.008,0.01 &#9;c0.001,0,0.001,0.001,0.002,0.002c0.004,0.005,0.007,0.008,0.011,0.013c0,0,0.001,0,0.001,0.001 &#9;c0.004,0.005,0.007,0.009,0.012,0.014l0,0c0.011,0.013,0.023,0.027,0.034,0.041c0.003,0.003,0.006,0.006,0.008,0.01 &#9;c0.001,0.001,0.001,0.001,0.002,0.002c0.021,0.025,0.043,0.051,0.064,0.076c0.297,0.354,0.724,0.536,1.153,0.536 &#9;c0.34,0,0.682-0.114,0.963-0.35c0.637-0.531,0.72-1.476,0.187-2.109l-0.207-0.246C227.627,237.135,227.204,236.954,226.778,236.954 &#9;L226.778,236.954z M222.205,232.309c-0.416,0-0.829,0.173-1.125,0.512c-0.546,0.623-0.483,1.572,0.138,2.12 &#9;c0.009,0.008,0.018,0.016,0.026,0.023c0.004,0.003,0.008,0.006,0.011,0.009c0.001,0.001,0.002,0.002,0.003,0.003 &#9;c0.051,0.044,0.101,0.088,0.15,0.132c0.002,0.002,0.003,0.003,0.005,0.005c0.001,0.001,0.003,0.003,0.005,0.004 &#9;c0.009,0.008,0.017,0.015,0.025,0.022c0.286,0.252,0.641,0.376,0.994,0.376c0.416,0,0.83-0.172,1.127-0.507 &#9;c0.55-0.619,0.491-1.565-0.131-2.113l-0.24-0.212C222.908,232.432,222.557,232.309,222.205,232.309L222.205,232.309z &#9; M216.991,228.396c-0.493,0-0.975,0.243-1.261,0.69c-0.445,0.697-0.243,1.627,0.453,2.075c0.046,0.03,0.095,0.062,0.141,0.091 &#9;c0.001,0.001,0.002,0.002,0.003,0.002c0.004,0.003,0.008,0.005,0.011,0.007s0.005,0.003,0.007,0.005 &#9;c0.002,0.001,0.004,0.002,0.006,0.003c0.028,0.019,0.057,0.037,0.085,0.056c0.252,0.162,0.534,0.24,0.813,0.24 &#9;c0.493,0,0.977-0.242,1.265-0.686c0.451-0.695,0.253-1.622-0.444-2.07l-0.27-0.175C217.549,228.474,217.269,228.396,216.991,228.396 &#9;L216.991,228.396z M211.247,225.308c-0.572,0-1.117,0.33-1.365,0.888c-0.337,0.758,0.003,1.646,0.759,1.985 &#9;c0.001,0,0.003,0.001,0.004,0.001c0.005,0.003,0.008,0.004,0.013,0.006c0.001,0.001,0.001,0.001,0.001,0.001 &#9;c0.086,0.038,0.171,0.076,0.257,0.115c0.2,0.089,0.408,0.132,0.614,0.132c0.573,0,1.121-0.329,1.373-0.885 &#9;c0.342-0.754,0.006-1.641-0.75-1.98l-0.293-0.131C211.66,225.35,211.452,225.308,211.247,225.308L211.247,225.308z M205.103,223.117 &#9;c-0.656,0-1.258,0.437-1.439,1.102c-0.219,0.799,0.251,1.626,1.05,1.848c0.062,0.017,0.125,0.034,0.188,0.052 &#9;c0.002,0.001,0.002,0.001,0.005,0.001c0.003,0.001,0.006,0.002,0.009,0.003c0.004,0.001,0.009,0.003,0.013,0.004 &#9;c0.001,0,0.002,0,0.002,0c0.023,0.007,0.049,0.014,0.072,0.021c0.135,0.037,0.27,0.055,0.402,0.055c0.657,0,1.263-0.435,1.449-1.098 &#9;c0.224-0.798-0.241-1.624-1.04-1.846l-0.31-0.086C205.37,223.135,205.235,223.117,205.103,223.117L205.103,223.117z M198.7,221.879 &#9;c-0.748,0-1.394,0.56-1.482,1.321c-0.096,0.823,0.493,1.57,1.316,1.669c0.099,0.012,0.198,0.023,0.297,0.036 &#9;c0.061,0.007,0.121,0.011,0.181,0.011c0.749,0,1.398-0.56,1.493-1.32c0.102-0.822-0.482-1.569-1.305-1.668l-0.319-0.038 &#9;C198.82,221.882,198.76,221.879,198.7,221.879L198.7,221.879z"/> <path fill="#FFFFFF" d="M177.078,275.724v7.821h7.822l23.068-23.069l-7.822-7.821L177.078,275.724z M214.015,254.428 &#9;c0.812-0.812,0.812-2.127,0-2.94l-4.881-4.879c-0.812-0.813-2.129-0.813-2.94,0l-3.817,3.815l7.821,7.822L214.015,254.428z"/> <path fill="#73869E" d="M193.844,178.144l9.242,9.243c0.301,0.299,0.301,0.788,0,1.089c-0.299,0.299-0.789,0.299-1.088,0 &#9;l-7.928-7.928v25.1c0,0.424-0.345,0.771-0.77,0.771c-0.426,0-0.771-0.347-0.771-0.771v-25.1l-7.927,7.928 &#9;c-0.301,0.299-0.79,0.299-1.089,0c-0.152-0.152-0.226-0.349-0.226-0.546s0.075-0.394,0.226-0.546l9.243-9.243 &#9;c0.299-0.299,0.788-0.299,1.088,0L193.844,178.144z"/> <path fill="#FFFFFF" d="M332.574,207.78l-1.63-1.629l-7.298,7.304l1.629,1.629L332.574,207.78z M337.461,206.151l-12.191,12.185 &#9;l-4.8-4.8l-1.63,1.629l6.43,6.43l13.814-13.814L337.461,206.151z M312.33,215.165l6.43,6.43l1.628-1.629l-6.429-6.43L312.33,215.165 &#9;z"/> <path fill="#FFFFFF" d="M189.248,139.216l-5.02-5.02l-1.704,1.704l6.723,6.724l14.446-14.447l-1.703-1.703L189.248,139.216z"/> <path fill="#73869E" d="M116.864,223.295l11.567-6.087c0.375-0.199,0.842-0.054,1.041,0.322c0.197,0.375,0.051,0.843-0.322,1.039 &#9;l-9.923,5.222l23.972,7.44c0.405,0.126,0.633,0.559,0.508,0.964c-0.126,0.406-0.56,0.634-0.964,0.508l-23.972-7.44l5.223,9.92 &#9;c0.196,0.377,0.051,0.843-0.323,1.041c-0.19,0.099-0.401,0.111-0.589,0.053c-0.189-0.059-0.354-0.188-0.454-0.377l-6.088-11.568 &#9;c-0.196-0.374-0.052-0.841,0.323-1.039L116.864,223.295z"/> <path fill="#73869E" d="M273.326,223.295l-11.567-6.087c-0.375-0.199-0.843-0.054-1.04,0.322c-0.197,0.375-0.052,0.843,0.322,1.039 &#9;l9.923,5.222l-23.972,7.44c-0.404,0.126-0.633,0.559-0.508,0.964c0.126,0.406,0.56,0.634,0.965,0.508l23.971-7.44l-5.223,9.92 &#9;c-0.195,0.377-0.051,0.843,0.323,1.041c0.19,0.099,0.401,0.111,0.589,0.053c0.189-0.059,0.354-0.188,0.454-0.377l6.089-11.568 &#9;c0.195-0.374,0.051-0.841-0.323-1.039L273.326,223.295z"/> <circle fill="#FB4142" cx="68.995" cy="220.167" r="1.808"/> </svg>